<svg width="75" height="84" viewBox="0 0 75 84" fill="none" xmlns="http://www.w3.org/2000/svg">
<path d="M22.7117 75.1653H19.4034V74.1428H22.7117V75.1653ZM17.4251 73.2004C17.4251 74.1183 17.287 75.0049 17.0107 75.8604C16.7345 76.7114 16.3446 77.4667 15.8411 78.1261C15.3376 78.7855 14.754 79.2913 14.0901 79.6433L13.2814 78.614C13.8918 78.3244 14.4309 77.8966 14.8988 77.3308C15.3711 76.7605 15.7364 76.1144 15.9949 75.3926C16.2533 74.6708 16.3825 73.94 16.3825 73.2004V71.1486H17.4251V73.2004ZM17.6724 73.2004C17.6724 73.9356 17.7994 74.6507 18.0534 75.3458C18.3118 76.0364 18.6705 76.6513 19.1294 77.1904C19.5928 77.7251 20.123 78.1283 20.7201 78.4001L19.9582 79.4294C19.2898 79.0863 18.7061 78.6006 18.2071 77.9724C17.7125 77.3397 17.3271 76.6134 17.0508 75.7936C16.779 74.9693 16.6432 74.1049 16.6432 73.2004V71.1486H17.6724V73.2004ZM23.34 82.1629H22.0768V70.1527H23.34V82.1629ZM28.9977 72.3182C28.9977 73.0935 28.864 73.8175 28.5967 74.4903C28.3293 75.1587 27.9439 75.7401 27.4404 76.2347C26.9369 76.7293 26.3399 77.1058 25.6493 77.3642L24.9475 76.355C25.5668 76.1411 26.1015 75.8315 26.5515 75.426C27.006 75.0161 27.3513 74.5438 27.5875 74.0091C27.8236 73.4744 27.9417 72.9108 27.9417 72.3182V70.8946H28.9977V72.3182ZM29.1982 72.3449C29.1982 72.884 29.3163 73.4009 29.5524 73.8955C29.7885 74.3856 30.1294 74.8223 30.575 75.2054C31.0205 75.5842 31.5418 75.8782 32.1389 76.0877L31.4839 77.0902C30.8067 76.8451 30.2207 76.4887 29.7262 76.0208C29.2316 75.553 28.8506 75.0027 28.5833 74.37C28.316 73.7373 28.1823 73.0623 28.1823 72.3449V70.8946H29.1982V72.3449ZM34.4514 78.9816H33.1882V70.1594H34.4514V78.9816ZM36.1958 74.8378H34.0637V73.7618H36.1958V74.8378ZM34.966 81.8956H26.8723V80.8463H34.966V81.8956ZM28.1689 81.3743H26.8723V78.1261H28.1689V81.3743ZM43.6815 71.1887C44.3365 71.1887 44.9358 71.3357 45.4794 71.6298C46.0274 71.9239 46.473 72.4162 46.8161 73.1068C47.1591 73.793 47.3307 74.6975 47.3307 75.8203C47.3307 76.9342 47.177 77.89 46.8695 78.6875C46.5665 79.4806 46.1299 80.0866 45.5596 80.5054C44.9937 80.9243 44.3231 81.1337 43.5478 81.1337C42.9686 81.1337 42.4473 81.0201 41.9839 80.7928C41.5205 80.5611 41.1418 80.2448 40.8477 79.8438C40.5537 79.4428 40.3687 78.9816 40.293 78.4603H41.75C41.8168 78.7365 41.9304 78.9794 42.0909 79.1888C42.2513 79.3937 42.454 79.5541 42.699 79.67C42.9486 79.7858 43.2315 79.8438 43.5478 79.8438C44.0424 79.8438 44.4679 79.7056 44.8244 79.4294C45.1808 79.1487 45.4526 78.7454 45.6398 78.2197C45.8314 77.6939 45.9272 77.0634 45.9272 76.3283H45.8069C45.6331 76.6001 45.4192 76.834 45.1652 77.03C44.9113 77.2261 44.6283 77.3776 44.3164 77.4845C44.0045 77.587 43.6771 77.6382 43.334 77.6382C42.7637 77.6382 42.2379 77.5023 41.7567 77.2305C41.2799 76.9543 40.9034 76.5755 40.6272 76.0943C40.3509 75.6131 40.2106 75.0718 40.2061 74.4703C40.2061 73.8509 40.3509 73.2917 40.6405 72.7927C40.9302 72.2937 41.3378 71.8993 41.8636 71.6097C42.3938 71.3201 42.9998 71.1798 43.6815 71.1887ZM43.6882 72.4184C43.305 72.4184 42.9575 72.5098 42.6456 72.6925C42.3337 72.8751 42.0886 73.1224 41.9104 73.4343C41.7322 73.7418 41.6431 74.0782 41.6431 74.4435C41.6475 74.8089 41.7366 75.1453 41.9104 75.4527C42.0842 75.7602 42.3225 76.003 42.6255 76.1812C42.933 76.3594 43.2761 76.4486 43.6548 76.4486C44.0335 76.4486 44.3811 76.355 44.6974 76.1679C45.0182 75.9763 45.27 75.7245 45.4526 75.4126C45.6398 75.1007 45.7333 74.771 45.7333 74.4235C45.7333 74.0715 45.6442 73.7418 45.466 73.4343C45.2878 73.1269 45.0427 72.8818 44.7308 72.6991C44.4234 72.512 44.0758 72.4184 43.6882 72.4184ZM57.2591 73.3073H54.1246V72.2981H57.2591V73.3073ZM57.1722 75.8003H54.031V74.7643H57.1722V75.8003ZM58.3151 77.2639H57.0452V70.1661H58.3151V77.2639ZM54.5724 71.0283C54.5724 72.0575 54.3518 72.9865 53.9107 73.8153C53.4696 74.644 52.8324 75.3525 51.9992 75.9406C51.1705 76.5243 50.1679 76.9877 48.9917 77.3308L48.4703 76.3283C49.4951 76.0386 50.3595 75.6621 51.0635 75.1988C51.772 74.7309 52.3067 74.194 52.6676 73.588C53.0329 72.9821 53.2156 72.3249 53.2156 71.6164V71.0283H54.5724ZM54.0845 72.0709H49.0919V71.0283H54.0845V72.0709ZM54.3718 77.3909C55.1783 77.3909 55.8845 77.4867 56.4905 77.6783C57.1009 77.8655 57.5688 78.1328 57.894 78.4803C58.2238 78.8279 58.3886 79.2445 58.3886 79.7301C58.3886 80.2114 58.2238 80.6302 57.894 80.9866C57.5688 81.3386 57.1009 81.6082 56.4905 81.7953C55.8845 81.9825 55.1783 82.076 54.3718 82.076C53.5609 82.076 52.8525 81.9825 52.2465 81.7953C51.6405 81.6082 51.1705 81.3386 50.8363 80.9866C50.5066 80.6302 50.3417 80.2114 50.3417 79.7301C50.3417 79.2445 50.5066 78.8279 50.8363 78.4803C51.1705 78.1328 51.6405 77.8655 52.2465 77.6783C52.8525 77.4867 53.5609 77.3909 54.3718 77.3909ZM54.3718 78.3934C53.8104 78.3845 53.3181 78.4335 52.8948 78.5405C52.476 78.6474 52.1529 78.8034 51.9257 79.0083C51.7029 79.2088 51.5915 79.4494 51.5915 79.7301C51.5915 80.0064 51.7029 80.2448 51.9257 80.4453C52.1529 80.6413 52.4737 80.7928 52.8881 80.8997C53.3069 81.0067 53.8015 81.0602 54.3718 81.0602C54.9333 81.0602 55.4189 81.0067 55.8288 80.8997C56.2432 80.7928 56.5618 80.6413 56.7846 80.4453C57.0118 80.2448 57.1254 80.0064 57.1254 79.7301C57.1254 79.4494 57.0118 79.2088 56.7846 79.0083C56.5618 78.8034 56.2432 78.6474 55.8288 78.5405C55.4189 78.4335 54.9333 78.3845 54.3718 78.3934Z" fill="#F8F7F5"/>
<path d="M38.7056 18.5091C20.1583 18.5091 5.32046 17.4677 1.31425 17.149C0.572359 17.0852 0.0212402 16.4689 0.0212402 15.7251V10.5609C0.0212402 10.0933 0.233209 9.66827 0.614753 9.41325C0.996297 9.13698 1.50502 9.07322 1.97135 9.24323C8.69077 11.7297 16.0461 9.4345 17.6782 8.8607V1.44378C17.6782 0.997485 17.869 0.572447 18.2294 0.317423C18.5685 0.0411484 19.0136 -0.0438594 19.4376 0.0624003C23.4862 1.10375 37.9637 4.18528 54.6668 0.0411483C55.0907 -0.0651113 55.5571 0.0411483 55.8962 0.296172C56.2354 0.572447 56.4262 0.976234 56.4262 1.40127V8.43566C56.4262 8.58443 56.5321 8.73319 56.6593 8.77569C58.6518 9.45575 65.6468 11.4747 72.133 9.07322C72.5782 8.9032 73.0869 8.96696 73.4896 9.24323C73.8712 9.49826 74.0832 9.9233 74.0832 10.3908V15.7038C74.0832 16.4476 73.5108 17.0639 72.769 17.1277C61.0895 18.1265 49.2828 18.4666 38.7056 18.4666V18.5091ZM1.42023 10.1996C1.42023 10.1996 1.27186 10.2208 1.20827 10.2633C1.14468 10.3058 1.05989 10.3908 1.05989 10.5396V15.7038C1.05989 15.8951 1.18707 16.0651 1.37784 16.0651C7.65212 16.5539 40.5709 18.8491 72.663 16.0651C72.8537 16.0651 73.0021 15.8951 73.0021 15.6826V10.3696C73.0021 10.1996 72.9173 10.1146 72.8537 10.0933C72.7478 10.0083 72.6206 10.0083 72.4722 10.0508C65.668 12.5585 58.3763 10.4546 56.299 9.75328C55.7267 9.56201 55.3451 9.00946 55.3451 8.39316V1.42252C55.3451 1.27376 55.2603 1.18875 55.2179 1.14625C55.1331 1.08249 55.006 1.03999 54.9 1.08249C37.9637 5.26912 23.253 2.16634 19.162 1.08249C19.0136 1.03999 18.9077 1.10375 18.8653 1.14625C18.7805 1.21 18.7169 1.31626 18.7169 1.44378V9.22198C18.7169 9.4345 18.5897 9.62577 18.3777 9.71078C18.0174 9.85954 9.53864 13.1748 1.56861 10.2208C1.52622 10.2208 1.46263 10.1996 1.42023 10.1996Z" fill="white"/>
<path d="M60.4111 26.0748H56.2141C55.9174 26.0748 55.6842 25.841 55.6842 25.5435V17.5528C55.6842 17.2553 55.9174 17.0215 56.2141 17.0215H60.4111C60.7079 17.0215 60.941 17.2553 60.941 17.5528V25.5435C60.941 25.841 60.7079 26.0748 60.4111 26.0748ZM56.744 25.0122H59.8812V18.0841H56.744V25.0122Z" fill="white"/>
<path d="M49.4947 26.0747H45.2977C45.001 26.0747 44.7678 25.841 44.7678 25.5434V17.8927C44.7678 17.5952 45.001 17.3615 45.2977 17.3615H49.4947C49.7915 17.3615 50.0246 17.5952 50.0246 17.8927V25.5434C50.0246 25.841 49.7915 26.0747 49.4947 26.0747ZM45.8277 25.0121H48.9648V18.424H45.8277V25.0121Z" fill="white"/>
<path d="M17.763 26.0748H13.5661C13.2693 26.0748 13.0361 25.841 13.0361 25.5435V17.5528C13.0361 17.2553 13.2693 17.0215 13.5661 17.0215H17.763C18.0598 17.0215 18.293 17.2553 18.293 17.5528V25.5435C18.293 25.841 18.0598 26.0748 17.763 26.0748ZM14.096 25.0122H17.2331V18.0841H14.096V25.0122Z" fill="white"/>
<path d="M28.3827 26.0748H24.1857C23.8889 26.0748 23.6558 25.841 23.6558 25.5648L23.4862 18.0203C23.4862 17.8716 23.5286 17.744 23.6346 17.6378C23.7406 17.5315 23.8677 17.4678 24.0161 17.4678H28.2131C28.5099 17.4678 28.743 17.7015 28.743 17.9778L28.9126 25.5223C28.9126 25.671 28.8702 25.7985 28.7642 25.9048C28.6582 26.011 28.5311 26.0748 28.3827 26.0748ZM24.7156 25.0122H27.8528L27.7044 18.5304H24.5672L24.7156 25.0122Z" fill="white"/>
<path d="M73.5532 28.9651C56.8501 29.3901 35.5684 29.4751 18.7805 29.2626C14.2443 29.2626 5.06609 29.1138 0.529957 28.9651C0.360382 28.8588 73.7228 28.8588 73.5532 28.9651Z" fill="white"/>
<path d="M72.6205 53.8298H1.46259C0.657103 53.8298 0 53.171 0 52.3634V26.4786C0 25.671 0.657103 25.0122 1.46259 25.0122H72.6205C73.426 25.0122 74.0831 25.671 74.0831 26.4786V52.3634C74.0831 53.171 73.426 53.8298 72.6205 53.8298ZM1.46259 26.0748C1.25062 26.0748 1.05984 26.2448 1.05984 26.4786V52.3634C1.05984 52.576 1.22942 52.7672 1.46259 52.7672H72.6205C72.8325 52.7672 73.0233 52.5972 73.0233 52.3634V26.4786C73.0233 26.2661 72.8537 26.0748 72.6205 26.0748H1.46259Z" fill="white"/>
<path d="M0.44519 13.4298C24.7368 15.1512 49.1768 15.47 73.4685 13.4298C49.2404 16.1288 24.6944 15.81 0.44519 13.4298Z" fill="white"/>
<path d="M56.2141 3.29269C44.0471 6.99053 30.6507 7.11804 18.4837 3.29269C18.4625 3.29269 18.4837 3.22893 18.4837 3.25019C30.7355 6.54424 44.0683 6.24671 56.1929 3.29269H56.2141Z" fill="white"/>
<path d="M45.5522 53.3834C45.2554 53.3834 45.0222 53.1497 45.0222 52.8521V45.9878C45.0222 41.5886 41.44 37.997 37.0522 37.997C32.6645 37.997 29.0822 41.5674 29.0822 45.9878V52.8521C29.0822 53.1497 28.849 53.3834 28.5523 53.3834C28.2555 53.3834 28.0223 53.1497 28.0223 52.8521V45.9878C28.0223 40.9936 32.0709 36.9344 37.0522 36.9344C42.0335 36.9344 46.0821 40.9936 46.0821 45.9878V52.8521C46.0821 53.1497 45.8489 53.3834 45.5522 53.3834Z" fill="white"/>
<path d="M48.4349 53.5535C48.2865 53.5535 48.1805 53.426 48.1805 53.2985V45.4777C48.1805 39.3359 43.1992 34.3205 37.0521 34.3205C30.905 34.3205 25.9238 39.3147 25.9238 45.4777V53.2985C25.9238 53.4472 25.7966 53.5535 25.6694 53.5535C25.5422 53.5535 25.415 53.426 25.415 53.2985V45.4777C25.415 39.0384 30.6507 33.7892 37.0733 33.7892C43.496 33.7892 48.7316 39.0384 48.7316 45.4777V53.2985C48.7316 53.4472 48.6044 53.5535 48.4772 53.5535H48.4349Z" fill="white"/>
<path d="M37.3277 34.0442L37.0733 37.4658L36.8189 34.0442C36.7977 33.683 37.3701 33.6617 37.3489 34.0442H37.3277Z" fill="white"/>
<path d="M48.4348 46.9442L45.4037 46.6891L48.4348 46.4341C48.8164 46.3916 48.8164 47.0079 48.4348 46.9654V46.9442Z" fill="white"/>
<path d="M45.4886 37.8696L42.8813 40.101L45.107 37.487C45.3402 37.2108 45.7641 37.6145 45.4886 37.8696Z" fill="white"/>
<path d="M29.2517 37.4871L31.1594 39.761L28.8914 37.8483C28.5946 37.6146 29.0185 37.1895 29.2729 37.4658L29.2517 37.4871Z" fill="white"/>
<path d="M28.5522 46.9442L25.6482 46.6891L28.5522 46.4341C28.9337 46.3916 28.9337 47.0079 28.5522 46.9654V46.9442Z" fill="white"/>
</svg>
