<svg width="72" height="79" viewBox="0 0 72 79" fill="none" xmlns="http://www.w3.org/2000/svg">
<path d="M30.9666 20.0651C29.5676 20.0651 28.423 18.9174 28.423 17.5148C28.423 16.1122 29.5676 14.9858 30.9666 14.9858C32.3656 14.9858 33.489 16.1334 33.489 17.5148C33.489 18.8962 32.3444 20.0651 30.9666 20.0651ZM30.9666 16.0484C30.1611 16.0484 29.4828 16.7072 29.4828 17.5148C29.4828 18.3224 30.1399 19.0025 30.9666 19.0025C31.7933 19.0025 32.4292 18.3436 32.4292 17.5148C32.4292 16.686 31.7721 16.0484 30.9666 16.0484Z" fill="white"/>
<path d="M40.6324 20.0651C39.2334 20.0651 38.11 18.9174 38.11 17.5148C38.11 16.1122 39.2546 14.9858 40.6324 14.9858C42.0102 14.9858 43.176 16.1334 43.176 17.5148C43.176 18.8962 42.0314 20.0651 40.6324 20.0651ZM40.6324 16.0484C39.8269 16.0484 39.1698 16.7072 39.1698 17.5148C39.1698 18.3224 39.8269 19.0025 40.6324 19.0025C41.4379 19.0025 42.1162 18.3436 42.1162 17.5148C42.1162 16.686 41.4591 16.0484 40.6324 16.0484Z" fill="white"/>
<path d="M35.6935 48.8189C26.8332 48.8189 19.6475 42.4221 19.6475 34.5589C19.6475 26.6957 26.8544 20.2988 35.6935 20.2988C44.5326 20.2988 51.7395 26.6957 51.7395 34.5589C51.7395 42.4221 44.5326 48.8189 35.6935 48.8189ZM35.6935 21.3827C27.4267 21.3827 20.7073 27.2907 20.7073 34.5801C20.7073 41.8695 27.4267 47.7776 35.6935 47.7776C43.9603 47.7776 50.6797 41.8695 50.6797 34.5801C50.6797 27.2907 43.9603 21.3827 35.6935 21.3827Z" fill="white"/>
<path d="M19.1812 34.5588L19.5203 36.3653L13.5852 35.7064L6.61141 38.1504L13.2672 34.5588H19.2024M19.1812 33.4962H13.246C13.0765 33.4962 12.9069 33.5387 12.7373 33.6238L6.08149 37.2153C5.59396 37.4704 5.382 38.0654 5.61517 38.5755C5.78474 38.9792 6.16628 39.213 6.59022 39.213C6.6962 39.213 6.82338 39.213 6.95056 39.1493L13.7124 36.769L19.4143 37.3853C19.4143 37.3853 19.4991 37.3853 19.5203 37.3853C19.8171 37.3853 20.0926 37.2578 20.3046 37.0453C20.5378 36.7903 20.6226 36.4503 20.559 36.1315L20.2198 34.3251C20.135 33.815 19.6899 33.4537 19.1812 33.4537V33.4962Z" fill="white"/>
<path d="M20.4954 39.6805L21.2161 41.3594L15.281 42.0182L9.00668 45.9286L14.7086 40.9556L20.4954 39.6593M20.5166 38.6179C20.5166 38.6179 20.3682 38.6179 20.2834 38.6392L14.4967 39.9356C14.3271 39.9781 14.1575 40.0631 14.0303 40.1693L8.32838 45.1423C7.90444 45.5036 7.84085 46.1199 8.18 46.5662C8.39197 46.8424 8.70992 46.9912 9.02787 46.9912C9.21864 46.9912 9.40942 46.9487 9.57899 46.8212L15.6625 43.0383L21.3645 42.4008C21.7036 42.3583 22.0004 42.167 22.1699 41.8695C22.3395 41.572 22.3607 41.2319 22.2335 40.9131L21.5128 39.2342C21.3433 38.8305 20.9617 38.5967 20.5378 38.5967L20.5166 38.6179Z" fill="white"/>
<path d="M57.929 34.5588L64.5849 38.1504L57.6111 35.7064L51.676 36.3652L52.0151 34.5588H57.9502M57.929 33.4962H51.9939C51.4852 33.4962 51.04 33.8575 50.9553 34.3675L50.6161 36.174C50.5525 36.514 50.6585 36.854 50.8705 37.0878C51.0824 37.3003 51.358 37.4278 51.6547 37.4278C51.6971 37.4278 51.7395 37.4278 51.7607 37.4278L57.4627 36.8115L64.2245 39.1917C64.3305 39.2342 64.4577 39.2555 64.5849 39.2555C64.9876 39.2555 65.3903 39.0217 65.5599 38.6179C65.7931 38.1079 65.5599 37.5128 65.0936 37.2578L58.4378 33.6662C58.2894 33.5812 58.1198 33.5387 57.929 33.5387V33.4962Z" fill="white"/>
<path d="M50.6797 39.6806L56.4665 40.977L62.1684 45.95L55.8942 42.0396L49.959 41.3808L50.6797 39.7019M50.6797 38.618C50.2558 38.618 49.8743 38.8731 49.7047 39.2556L48.984 40.9345C48.8568 41.2533 48.878 41.5933 49.0476 41.8908C49.2171 42.1884 49.5139 42.3796 49.8531 42.4221L55.555 43.0597L61.6385 46.8425C61.8081 46.9488 61.9989 47.0126 62.1896 47.0126C62.5076 47.0126 62.8467 46.8638 63.0375 46.5875C63.3555 46.1412 63.2919 45.5249 62.8891 45.1636L57.1872 40.1907C57.06 40.0844 56.8904 39.9994 56.7208 39.9569L50.9341 38.6605C50.9341 38.6605 50.7857 38.6393 50.7009 38.6393L50.6797 38.618Z" fill="white"/>
<path d="M19.7535 28.5021C19.1176 28.5021 18.4816 28.3321 17.9305 27.9921L15.6201 26.5682C15.0901 26.2282 14.5178 25.8881 14.2635 25.2081L14.1151 25.0168C12.5041 24.6343 11.0627 23.1679 10.7872 21.6165C10.5328 20.1714 11.0839 18.705 12.2286 17.7699C12.3981 17.6211 12.6313 17.6211 12.8221 17.7274C12.8857 17.7699 12.9493 17.8124 12.9917 17.8549C14.3907 18.5775 15.9168 18.7475 17.4642 18.3862C17.6762 18.3437 17.8881 18.4287 18.0153 18.5987C18.3545 19.0875 18.5876 19.6188 18.6724 20.1926L18.7996 20.6389L22.1699 22.7216C23.3993 23.4867 23.7809 25.1018 23.0178 26.3132L22.6998 26.8232C22.2123 27.6095 21.4492 28.1833 20.5377 28.3959C20.2622 28.4596 19.9866 28.5021 19.7111 28.5021H19.7535ZM12.6313 18.875C11.9742 19.5551 11.6774 20.5114 11.847 21.4465C12.059 22.6366 13.2672 23.7842 14.5178 24.018C14.645 24.0392 14.751 24.103 14.8358 24.2092L15.1749 24.613C15.1749 24.613 15.2597 24.7193 15.2809 24.783C15.3869 25.1443 15.6837 25.3356 16.1712 25.6331L18.524 27.0782C19.0752 27.4183 19.7323 27.5245 20.3682 27.3758C21.0041 27.227 21.534 26.8445 21.8731 26.2919L22.1911 25.7819C22.6362 25.0593 22.4031 24.103 21.6824 23.6354L18.1425 21.4465C18.0365 21.3827 17.9517 21.2765 17.9093 21.149L17.6974 20.4476C17.6338 20.1076 17.5278 19.8101 17.3794 19.5126C15.7049 19.8101 14.0939 19.5976 12.6525 18.875H12.6313Z" fill="white"/>
<path d="M14.4543 23.9966C15.5989 24.0604 16.7011 23.3803 17.6126 22.594C16.8071 23.4866 15.8109 24.3792 14.4755 24.5279C14.3271 24.5279 14.1999 24.4429 14.1787 24.2941C14.1575 24.1241 14.2847 23.9754 14.4543 23.9966Z" fill="white"/>
<path d="M56.3182 24.5279C54.9828 24.3792 53.9653 23.4866 53.181 22.594C54.1137 23.3803 55.1947 24.0391 56.3394 23.9966C56.7209 23.9754 56.6997 24.5704 56.3182 24.5279Z" fill="white"/>
<path d="M16.15 19.64C14.1363 19.64 12.3982 18.7262 12.3134 18.6624C8.34959 16.4097 7.14137 10.8417 9.57901 5.99627C11.5927 2.00091 15.6201 -0.443066 19.3932 0.0669806C19.7111 0.109484 19.9655 0.300752 20.1351 0.577027C20.3046 0.853302 20.3046 1.21458 20.1775 1.51211C18.9268 4.33862 18.4817 6.97386 18.8209 9.35407C19.6475 9.0778 21.9156 8.33398 24.4168 7.03761C24.7348 6.8676 25.0951 6.88885 25.4131 7.05887C25.7098 7.22888 25.9006 7.52641 25.9218 7.86644C26.0278 9.82162 25.6251 11.8193 24.7136 13.6257C23.2298 16.5797 20.6226 18.7474 17.7398 19.4062C17.2099 19.555 16.68 19.6188 16.15 19.6188V19.64ZM18.4181 1.04457C15.3658 1.04457 12.1862 3.16976 10.5329 6.48506C8.34959 10.8205 9.36704 15.7509 12.8221 17.7273C12.8221 17.7273 15.281 19.0237 17.4431 18.3861C17.4431 18.3861 17.4431 18.3861 17.4642 18.3861C20.0503 17.7911 22.4031 15.8359 23.7385 13.1582C24.5652 11.5218 24.9468 9.71536 24.8408 7.95145C22.2971 9.33282 19.9443 10.0979 19.0752 10.3742C18.7997 10.4592 18.4817 10.4167 18.2273 10.2467C17.973 10.0766 17.8034 9.82162 17.761 9.52409C17.4007 6.93135 17.8882 4.10485 19.2024 1.08707C18.948 1.06582 18.6725 1.04457 18.3969 1.04457H18.4181Z" fill="white"/>
<path d="M51.0824 28.5021C49.8954 28.5021 48.7508 27.907 48.0937 26.8232L47.7969 26.3344C47.4366 25.7393 47.3306 25.038 47.479 24.3367C47.6274 23.6354 48.0513 23.0828 48.6448 22.7003L52.0151 20.6176L52.1635 20.1076C52.2483 19.5975 52.4814 19.0662 52.8206 18.5774C52.9478 18.4074 53.1809 18.3224 53.3717 18.3649C54.9191 18.7262 56.4453 18.5562 57.7807 17.8974C57.9078 17.7911 57.9714 17.7698 58.035 17.7273C58.2258 17.6211 58.459 17.6423 58.6285 17.7698C59.7732 18.7049 60.3243 20.1713 60.0699 21.6164C59.7944 23.1678 58.353 24.613 56.742 25.0168L56.5936 25.208C56.3393 25.8881 55.7882 26.2281 55.2794 26.5469L52.9266 27.992C52.3543 28.3533 51.7184 28.5021 51.1036 28.5021H51.0824ZM53.4989 19.4912C53.3505 19.7675 53.2445 20.0651 53.1809 20.3626L52.969 21.1064C52.9266 21.2339 52.8418 21.3402 52.7358 21.4039L49.1959 23.5929C48.8356 23.8054 48.6024 24.1454 48.4964 24.5705C48.3904 24.9955 48.454 25.3993 48.6872 25.7606L48.984 26.2494C49.6835 27.397 51.2096 27.7583 52.3543 27.0569L54.6647 25.6331C55.1946 25.3143 55.4914 25.1018 55.5974 24.7405C55.5974 24.6767 55.6398 24.613 55.7034 24.5705L56.0425 24.1667C56.0425 24.1667 56.2333 23.9967 56.3605 23.9754C57.6111 23.7416 58.8193 22.594 59.0313 21.4039C59.2008 20.4688 58.9041 19.5125 58.247 18.8324C56.8056 19.555 55.1946 19.7675 53.5201 19.47L53.4989 19.4912Z" fill="white"/>
<path d="M54.6859 19.64C54.1772 19.64 53.6261 19.5762 53.0961 19.4275C50.2134 18.7687 47.6061 16.601 46.1224 13.647C45.2109 11.8405 44.8082 9.86411 44.9141 7.90893C44.9141 7.5689 45.1261 7.27137 45.4229 7.10136C45.7408 6.93134 46.1224 6.91009 46.4403 7.08011C48.8356 8.31272 50.9765 9.03528 52.0363 9.35406C52.3543 6.9951 51.8879 4.35986 50.6585 1.5546C50.5313 1.25708 50.5313 0.895794 50.7009 0.598267C50.8493 0.321992 51.1248 0.130725 51.4428 0.0882208C55.2158 -0.421826 59.2432 2.02215 61.2357 6.01751C63.6734 10.863 62.4652 16.4097 58.5225 18.6624C58.4166 18.7262 56.6784 19.64 54.6647 19.64H54.6859ZM45.9528 8.01519C45.868 9.7366 46.2495 11.543 47.0762 13.1582C48.4328 15.8359 50.7645 17.7911 53.3505 18.3861C53.3505 18.3861 53.3505 18.3861 53.3717 18.3861C55.555 19.0237 57.9926 17.7273 58.0138 17.7273C61.4689 15.7509 62.4652 10.8204 60.3031 6.48505C58.5013 2.89348 54.8979 0.662023 51.5912 1.12957C52.9478 4.08358 53.4353 6.91009 53.0749 9.50283C53.0326 9.80035 52.863 10.0554 52.6086 10.2254C52.3543 10.3954 52.0363 10.4379 51.7395 10.3529C50.6373 10.0129 48.4328 9.26906 45.9528 8.01519Z" fill="white"/>
<path d="M53.0538 9.5029C53.0962 11.5218 51.8668 12.6694 51.1249 14.3271C50.5102 16.006 51.4428 17.7486 52.7782 18.79C51.358 17.7912 50.3406 16.0272 50.8705 14.2421C51.4428 12.6482 52.6934 11.3093 52.5027 9.5029C52.4815 9.14161 53.0538 9.14161 53.0326 9.5029H53.0538Z" fill="white"/>
<path d="M18.3333 9.50284C18.1637 11.3093 19.3931 12.6481 19.9654 14.242C20.5165 16.0059 19.4991 17.7911 18.0577 18.7899C20.5801 16.771 20.2622 14.4545 18.4392 12.0956C18.0577 11.288 17.8457 10.4167 17.8033 9.50284C17.8033 9.35407 17.9093 9.22656 18.0577 9.22656C18.2061 9.22656 18.3545 9.35407 18.3333 9.50284Z" fill="white"/>
<path d="M21.991 70.168H18.6842V69.1459H21.991V70.168ZM16.7068 68.204C16.7068 69.1214 16.5687 70.0077 16.2926 70.8628C16.0165 71.7134 15.6268 72.4683 15.1235 73.1274C14.6203 73.7866 14.0368 74.292 13.3733 74.6439L12.5649 73.6151C13.1751 73.3256 13.714 72.8981 14.1816 72.3325C14.6537 71.7624 15.0189 71.1166 15.2772 70.3951C15.5355 69.6737 15.6646 68.9433 15.6646 68.204V66.1531H16.7068V68.204ZM16.954 68.204C16.954 68.9388 17.0809 69.6536 17.3347 70.3484C17.593 71.0387 17.9516 71.6533 18.4103 72.1922C18.8735 72.7266 19.4034 73.1297 20.0002 73.4013L19.2387 74.4301C18.5706 74.0872 17.9872 73.6017 17.4884 72.9738C16.994 72.3414 16.6088 71.6154 16.3327 70.796C16.061 69.9721 15.9252 69.1081 15.9252 68.204V66.1531H16.954V68.204ZM22.6189 77.1624H21.3563V65.1577H22.6189V77.1624ZM28.274 67.3222C28.274 68.0971 28.1404 68.8208 27.8732 69.4933C27.606 70.1613 27.2208 70.7425 26.7175 71.2369C26.2142 71.7312 25.6175 72.1076 24.9271 72.3659L24.2257 71.3571C24.8448 71.1433 25.3792 70.8338 25.829 70.4285C26.2833 70.0188 26.6284 69.5467 26.8645 69.0123C27.1005 68.4779 27.2185 67.9145 27.2185 67.3222V65.8992H28.274V67.3222ZM28.4744 67.3489C28.4744 67.8878 28.5925 68.4044 28.8285 68.8987C29.0645 69.3886 29.4052 69.8251 29.8506 70.2081C30.296 70.5866 30.817 70.8806 31.4138 71.0899L30.7591 72.092C30.0822 71.847 29.4965 71.4907 29.0022 71.0231C28.5078 70.5555 28.1271 70.0055 27.8598 69.373C27.5926 68.7406 27.459 68.0659 27.459 67.3489V65.8992H28.4744V67.3489ZM33.7252 73.9825H32.4626V65.1644H33.7252V73.9825ZM35.4688 69.8407H33.3378V68.7651H35.4688V69.8407ZM34.2396 76.8952H26.1497V75.8464H34.2396V76.8952ZM27.4457 76.3741H26.1497V73.1274H27.4457V76.3741ZM42.9511 66.1932C43.6058 66.1932 44.2048 66.3401 44.7482 66.6341C45.296 66.928 45.7413 67.4201 46.0842 68.1104C46.4272 68.7963 46.5986 69.7004 46.5986 70.8227C46.5986 71.9361 46.445 72.8914 46.1377 73.6886C45.8348 74.4813 45.3984 75.087 44.8283 75.5057C44.2627 75.9243 43.5925 76.1336 42.8175 76.1336C42.2386 76.1336 41.7175 76.02 41.2543 75.7929C40.7911 75.5613 40.4126 75.2451 40.1187 74.8443C39.8247 74.4435 39.6399 73.9825 39.5642 73.4614H41.0205C41.0873 73.7376 41.2009 73.9803 41.3612 74.1896C41.5215 74.3945 41.7242 74.5548 41.9691 74.6706C42.2185 74.7864 42.5013 74.8443 42.8175 74.8443C43.3119 74.8443 43.7372 74.7062 44.0935 74.4301C44.4498 74.1495 44.7214 73.7465 44.9085 73.221C45.1 72.6954 45.1958 72.0652 45.1958 71.3304H45.0755C44.9018 71.6021 44.688 71.8359 44.4342 72.0318C44.1803 72.2278 43.8975 72.3792 43.5858 72.4861C43.274 72.5885 42.9467 72.6398 42.6038 72.6398C42.0337 72.6398 41.5082 72.5039 41.0272 72.2323C40.5507 71.9561 40.1743 71.5776 39.8982 71.0966C39.6221 70.6156 39.4818 70.0745 39.4773 69.4732C39.4773 68.8542 39.6221 68.2953 39.9116 67.7965C40.201 67.2977 40.6085 66.9035 41.1341 66.614C41.6641 66.3246 42.2697 66.1843 42.9511 66.1932ZM42.9578 67.4224C42.5748 67.4224 42.2274 67.5137 41.9157 67.6963C41.6039 67.8789 41.359 68.126 41.1808 68.4378C41.0027 68.7451 40.9136 69.0813 40.9136 69.4465C40.9181 69.8117 41.0071 70.148 41.1808 70.4553C41.3545 70.7626 41.5928 71.0053 41.8956 71.1834C42.2029 71.3616 42.5459 71.4506 42.9244 71.4506C43.303 71.4506 43.6504 71.3571 43.9666 71.1701C44.2872 70.9786 44.5389 70.7269 44.7214 70.4152C44.9085 70.1034 45.002 69.7739 45.002 69.4265C45.002 69.0747 44.913 68.7451 44.7348 68.4378C44.5567 68.1305 44.3117 67.8855 44 67.7029C43.6927 67.5159 43.3453 67.4224 42.9578 67.4224ZM53.8837 74.1763H48.2655V66.3134H53.8837V74.1763ZM49.5148 73.1608H52.6412V67.3155H49.5148V73.1608ZM57.5179 77.1624H56.2419V65.1577H57.5179V77.1624Z" fill="#F8F7F5"/>
</svg>
