<svg width="61" height="84" viewBox="0 0 61 84" fill="none" xmlns="http://www.w3.org/2000/svg">
<path d="M36.1438 50.2458C35.8894 50.2458 35.6562 50.0546 35.6138 49.7996C35.5715 49.502 35.7622 49.247 36.059 49.1832C37.2036 49.0132 38.2635 48.7795 39.2173 48.5032C42.1637 47.6531 45.3644 46.548 47.7597 45.5917C54.4579 42.9139 58.0613 39.3223 58.4853 34.9232C59.206 27.4 50.5364 17.3691 34.0453 6.65812C33.7909 6.48811 33.7273 6.16933 33.8969 5.91431C34.0665 5.65928 34.3844 5.59553 34.6388 5.76554C51.7235 16.8591 60.3506 26.975 59.5663 35.0295C59.1 39.8536 55.2634 43.7427 48.1836 46.5905C45.7672 47.5681 42.524 48.6732 39.5565 49.5233C38.5602 49.8208 37.458 50.0546 36.2709 50.2458C36.2497 50.2458 36.2074 50.2458 36.1862 50.2458H36.1438Z" fill="white"/>
<path d="M24.6762 50.2246C24.6762 50.2246 24.6126 50.2246 24.5914 50.2246C23.6164 50.0758 22.6837 49.8633 21.8358 49.6508C18.5079 48.7582 15.2648 47.6531 12.7424 46.5693C5.55661 43.4877 1.74117 39.3223 1.38083 34.2219C0.80851 25.9336 9.6688 15.839 26.3296 5.7443C26.5839 5.59553 26.9019 5.68054 27.0503 5.91431C27.1986 6.14808 27.1138 6.48811 26.8807 6.63688C10.5803 16.4978 1.88955 26.2737 2.44067 34.1369C2.75862 38.8336 6.36209 42.6802 13.1663 45.5917C15.6463 46.6543 18.8259 47.7381 22.1326 48.6307C22.9381 48.8432 23.8283 49.0345 24.7822 49.1833C25.0789 49.2258 25.2697 49.502 25.2273 49.7996C25.1849 50.0546 24.9518 50.2458 24.6974 50.2458L24.6762 50.2246Z" fill="white"/>
<path d="M24.3582 49.2045C24.3582 49.2045 24.2946 49.2045 24.2522 49.2045C21.4754 48.0144 19.5041 46.8243 18.3383 46.038C13.8657 43.0415 11.3009 39.1311 10.7074 34.3919C9.77475 26.9963 13.675 18.1555 21.963 8.84712C22.0689 8.74086 22.2385 8.71961 22.3445 8.84712C22.4505 8.95338 22.4717 9.10214 22.3445 9.22966C14.2685 18.3042 10.3047 27.2088 11.2161 34.3494C11.7885 38.9399 14.2897 42.7227 18.635 45.6342C19.7797 46.3993 21.7298 47.5681 24.4642 48.737C24.5914 48.8008 24.655 48.9495 24.6126 49.077C24.5702 49.1833 24.4642 49.247 24.3794 49.247L24.3582 49.2045Z" fill="white"/>
<path d="M36.1225 49.2045C36.1225 49.2045 35.9317 49.1408 35.8893 49.0345C35.8257 48.907 35.8893 48.737 36.0377 48.6945C38.7721 47.5256 40.7222 46.3568 41.8668 45.5917C46.2122 42.6802 48.6922 38.8974 49.2857 34.3069C50.1972 27.1663 46.2334 18.2405 38.1574 9.18715C38.0514 9.08089 38.0726 8.91087 38.1574 8.80461C38.2634 8.69835 38.4329 8.7196 38.5389 8.80461C46.8481 18.113 50.7483 26.9538 49.7945 34.3494C49.2009 39.0886 46.6149 42.999 42.1636 45.9955C40.9977 46.7818 39.0052 47.9719 36.2496 49.162C36.2072 49.162 36.1861 49.162 36.1437 49.162L36.1225 49.2045Z" fill="white"/>
<path d="M30.3993 52.1161H30.3357C27.8981 52.1161 25.6512 51.096 24.0402 49.3108C23.7223 48.9495 23.4255 48.6095 23.1712 48.2695C22.9804 48.0357 23.0228 47.6957 23.256 47.5256C23.4891 47.3556 23.8283 47.3769 23.9978 47.6106C24.2522 47.9294 24.5278 48.2482 24.8245 48.5882C26.2447 50.1609 28.1948 51.0322 30.3357 51.0535H30.3993C32.5614 51.0535 34.6387 50.1609 36.1013 48.567C36.4404 48.2057 36.716 47.8869 36.9703 47.5894C44.3469 38.8336 42.312 22.0658 31.3532 1.55771C31.1836 1.26018 30.8868 1.06891 30.5265 1.06891C30.2085 1.02641 29.8694 1.23893 29.6998 1.53645C28.64 3.40663 27.6225 5.27679 26.7322 7.10446C26.6051 7.35948 26.2871 7.487 26.0327 7.33823C25.7784 7.21072 25.6724 6.89194 25.7996 6.63692C26.711 4.788 27.7285 2.89658 28.8095 1.00516C29.1699 0.367599 29.8058 -0.05744 30.5689 0.00631582C31.3108 0.00631582 31.9679 0.410103 32.307 1.04766C43.4778 21.9596 45.4703 39.1736 37.797 48.2695C37.5427 48.567 37.2459 48.907 36.8856 49.2895C35.211 51.096 32.8582 52.1161 30.3993 52.1161Z" fill="white"/>
<path d="M26.6474 7.31697C24.5913 11.1211 22.7896 15.0952 21.3694 19.218C22.4504 14.9889 23.9342 10.866 25.6936 6.84942C25.9691 6.19061 26.9866 6.67941 26.6474 7.31697Z" fill="white"/>
<path d="M19.9917 24.786C18.6775 32.4792 18.9107 41.3413 24.0191 47.6106C24.4643 48.1206 23.6376 48.8219 23.2136 48.2906C18.19 41.5538 18.3384 32.628 20.0129 24.786H19.9917Z" fill="white"/>
<path d="M17.5031 75.431H14.3454V74.4549H17.5031V75.431ZM12.4571 73.5555C12.4571 74.4316 12.3253 75.2779 12.0616 76.0944C11.798 76.9067 11.4258 77.6275 10.9453 78.2569C10.4647 78.8864 9.9076 79.3691 9.27393 79.705L8.50205 78.7226C9.08468 78.4462 9.59927 78.0379 10.0458 77.4978C10.4966 76.9535 10.8453 76.3368 11.092 75.6479C11.3387 74.9589 11.462 74.2614 11.462 73.5555V71.5971H12.4571V73.5555ZM12.6932 73.5555C12.6932 74.2572 12.8144 74.9398 13.0568 75.6032C13.3035 76.2624 13.6458 76.8493 14.0838 77.3639C14.5261 77.8742 15.0322 78.2591 15.6021 78.5185L14.8749 79.5009C14.2369 79.1734 13.6798 78.7099 13.2035 78.1102C12.7315 77.5063 12.3636 76.8131 12.0999 76.0306C11.8405 75.2438 11.7108 74.4188 11.7108 73.5555V71.5971H12.6932V73.5555ZM18.1027 82.11H16.8971V70.6466H18.1027V82.11ZM23.5028 72.7134C23.5028 73.4534 23.3753 74.1445 23.1201 74.7867C22.8649 75.4246 22.4971 75.9796 22.0165 76.4516C21.5359 76.9237 20.9661 77.2831 20.3069 77.5297L19.6371 76.5665C20.2282 76.3623 20.7385 76.0668 21.1681 75.6798C21.6018 75.2885 21.9314 74.8377 22.1568 74.3274C22.3822 73.817 22.4949 73.279 22.4949 72.7134V71.3547H23.5028V72.7134ZM23.6942 72.7389C23.6942 73.2535 23.8069 73.7469 24.0323 74.2189C24.2577 74.6867 24.5831 75.1035 25.0083 75.4692C25.4336 75.8307 25.9312 76.1114 26.5011 76.3113L25.8759 77.2682C25.2295 77.0343 24.6702 76.694 24.1982 76.2475C23.7261 75.801 23.3625 75.2757 23.1073 74.6718C22.8522 74.0679 22.7246 73.4236 22.7246 72.7389V71.3547H23.6942V72.7389ZM28.7083 79.0735H27.5026V70.6529H28.7083V79.0735ZM30.3732 75.1184H28.3383V74.0913H30.3732V75.1184ZM29.1995 81.8548H21.4743V80.8533H29.1995V81.8548ZM22.7118 81.3572H21.4743V78.2569H22.7118V81.3572ZM37.5182 71.6353C38.1434 71.6353 38.7154 71.7757 39.2342 72.0564C39.7573 72.3371 40.1826 72.807 40.51 73.4662C40.8375 74.1211 41.0012 74.9844 41.0012 76.0561C41.0012 77.1193 40.8545 78.0315 40.5611 78.7928C40.2719 79.5498 39.8551 80.1282 39.3107 80.5279C38.7706 80.9277 38.1306 81.1276 37.3906 81.1276C36.8377 81.1276 36.3402 81.0191 35.8979 80.8022C35.4556 80.5811 35.0941 80.2792 34.8134 79.8964C34.5327 79.5136 34.3562 79.0735 34.2839 78.5759H35.6746C35.7384 78.8396 35.8468 79.0714 35.9999 79.2712C36.153 79.4669 36.3465 79.62 36.5805 79.7305C36.8186 79.8411 37.0887 79.8964 37.3906 79.8964C37.8627 79.8964 38.2688 79.7646 38.609 79.5009C38.9493 79.233 39.2087 78.8481 39.3873 78.3463C39.5702 77.8444 39.6616 77.2427 39.6616 76.5409H39.5468C39.3809 76.8004 39.1768 77.0236 38.9344 77.2108C38.692 77.3979 38.4219 77.5425 38.1242 77.6445C37.8265 77.7424 37.5139 77.7913 37.1865 77.7913C36.6421 77.7913 36.1403 77.6616 35.681 77.4021C35.2259 77.1385 34.8666 76.777 34.6029 76.3177C34.3392 75.8584 34.2053 75.3417 34.201 74.7675C34.201 74.1764 34.3392 73.6427 34.6157 73.1663C34.8921 72.69 35.2812 72.3137 35.7831 72.0372C36.2891 71.7608 36.8675 71.6268 37.5182 71.6353ZM37.5246 72.8091C37.1588 72.8091 36.8271 72.8963 36.5294 73.0707C36.2317 73.245 35.9978 73.4811 35.8277 73.7788C35.6576 74.0722 35.5725 74.3933 35.5725 74.742C35.5768 75.0907 35.6618 75.4118 35.8277 75.7053C35.9936 75.9987 36.2211 76.2305 36.5103 76.4006C36.8037 76.5707 37.1312 76.6558 37.4927 76.6558C37.8542 76.6558 38.1859 76.5665 38.4878 76.3878C38.794 76.205 39.0343 75.9647 39.2087 75.667C39.3873 75.3693 39.4766 75.0546 39.4766 74.7229C39.4766 74.3869 39.3916 74.0722 39.2214 73.7788C39.0513 73.4853 38.8174 73.2514 38.5197 73.077C38.2263 72.8984 37.8946 72.8091 37.5246 72.8091ZM47.7537 78.6907H46.5608V76.777H47.7537V78.6907ZM52.3787 77.1023H41.9551V76.1199H52.3787V77.1023ZM51.4026 71.9862H42.9119V71.0038H51.4026V71.9862ZM51.3516 75.1567H42.963V74.1679H51.3516V75.1567ZM45.7826 74.8441H44.5769V71.4121H45.7826V74.8441ZM49.7377 74.8441H48.5256V71.4121H49.7377V74.8441ZM51.1092 81.9377H43.2054V78.3271H51.1092V81.9377ZM44.4047 80.9553H49.9227V79.2712H44.4047V80.9553Z" fill="#F8F7F5"/>
</svg>
