<svg width="291" height="180" viewBox="0 0 291 180" fill="none" xmlns="http://www.w3.org/2000/svg">
<rect x="139.425" y="7.27527" width="152.052" height="152.052" rx="17.8885" transform="rotate(7.5987 139.425 7.27527)" fill="#43CAFF"/>
<rect opacity="0.8" x="139.809" y="7.77769" width="151.158" height="151.158" rx="17.4413" transform="rotate(7.5987 139.809 7.77769)" stroke="white" stroke-width="0.894425"/>
<path d="M194.191 104.285L192.261 104.028L193.792 92.5473L195.723 92.8049L194.191 104.285ZM194.118 108.206L183.321 106.765L183.532 105.19L194.328 106.63L194.118 108.206ZM185.352 106.34L183.413 106.081L183.974 101.874L185.913 102.132L185.352 106.34ZM187.809 95.4502C187.684 96.3911 187.393 97.2482 186.938 98.0216C186.483 98.7892 185.88 99.4314 185.13 99.9482C184.38 100.459 183.512 100.799 182.526 100.967L181.784 99.3344C182.631 99.1947 183.374 98.9297 184.013 98.5391C184.653 98.1486 185.158 97.6667 185.528 97.0934C185.904 96.5208 186.136 95.9026 186.225 95.2389L186.306 94.6328L187.89 94.8442L187.809 95.4502ZM188.156 95.4964C188.072 96.1256 188.139 96.7455 188.357 97.3562C188.576 97.9611 188.945 98.5214 189.463 99.0371C189.988 99.5535 190.638 99.984 191.415 100.328L190.286 101.72C189.377 101.317 188.622 100.784 188.023 100.123C187.424 99.4612 187.004 98.7148 186.762 97.8836C186.526 97.0532 186.468 96.1878 186.589 95.2874L186.669 94.6813L188.236 94.8904L188.156 95.4964ZM191.509 95.7235L182.92 94.5777L183.121 93.0713L191.71 94.217L191.509 95.7235ZM188.314 94.4425L186.366 94.1826L186.701 91.6718L188.649 91.9317L188.314 94.4425ZM208.915 97.0939L199.019 95.7737L199.226 94.224L209.122 95.5441L208.915 97.0939ZM210.698 104.143L196.447 102.242L196.656 100.675L210.907 102.576L210.698 104.143ZM203.618 109.79L201.678 109.531L202.607 102.571L204.546 102.829L203.618 109.79ZM209.871 97.0628C209.769 97.8305 209.67 98.4869 209.573 99.0322C209.483 99.5782 209.343 100.206 209.155 100.915C208.972 101.625 208.729 102.389 208.426 103.206L206.55 102.735C206.848 101.958 207.086 101.227 207.266 100.54C207.447 99.847 207.581 99.2335 207.67 98.699C207.759 98.1645 207.852 97.5337 207.949 96.8064L208.135 95.4125L210.057 95.6689L209.871 97.0628ZM216.748 107.409L214.826 107.153L215.319 103.456L217.241 103.712L216.748 107.409ZM217.182 96.6282C217.984 96.7352 218.684 96.9931 219.282 97.4018C219.886 97.8055 220.334 98.3205 220.626 98.947C220.925 99.5685 221.026 100.246 220.928 100.979C220.83 101.712 220.556 102.339 220.104 102.86C219.66 103.377 219.092 103.753 218.403 103.99C217.719 104.228 216.976 104.294 216.174 104.187C215.36 104.078 214.651 103.819 214.048 103.409C213.444 103 212.999 102.488 212.711 101.874C212.423 101.254 212.328 100.578 212.426 99.8446C212.524 99.1115 212.793 98.4836 213.233 97.9606C213.673 97.432 214.238 97.052 214.927 96.8208C215.616 96.5838 216.368 96.5196 217.182 96.6282ZM216.962 98.2732C216.506 98.2123 216.088 98.2446 215.707 98.37C215.326 98.4955 215.01 98.7088 214.758 99.0101C214.513 99.3064 214.362 99.6681 214.305 100.095C214.248 100.522 214.299 100.911 214.458 101.261C214.622 101.612 214.872 101.901 215.206 102.128C215.546 102.349 215.942 102.49 216.392 102.55C216.842 102.61 217.255 102.577 217.63 102.451C218.012 102.32 218.325 102.106 218.57 101.81C218.821 101.514 218.975 101.153 219.032 100.726C219.089 100.299 219.035 99.9097 218.871 99.5587C218.712 99.2085 218.468 98.9234 218.139 98.7033C217.811 98.4774 217.418 98.334 216.962 98.2732ZM222.86 112.322L220.938 112.066L223.024 96.4294L224.946 96.6859L222.86 112.322ZM226.164 104.867L223.324 104.488L223.542 102.852L226.382 103.231L226.164 104.867ZM211.006 105.868C212.421 106.05 213.591 106.195 214.517 106.301C215.448 106.407 216.472 106.506 217.588 106.596C218.705 106.68 219.757 106.721 220.744 106.717L220.684 108.163C219.649 108.213 218.574 108.211 217.459 108.156C216.345 108.096 215.288 108.007 214.287 107.891C213.287 107.77 212.213 107.632 211.064 107.479L211.006 105.868ZM163.754 126.376L161.832 126.119L163.091 116.682L165.013 116.939L163.754 126.376ZM166.46 122.806L163.724 122.441L163.939 120.831L166.675 121.196L166.46 122.806ZM162.952 132.393L152.848 131.045L153.55 125.781L163.654 127.129L162.952 132.393ZM154.959 129.749L161.254 130.589L161.547 128.39L155.253 127.55L154.959 129.749ZM161.559 119.58L152.269 118.34L152.475 116.799L161.765 118.038L161.559 119.58ZM156.844 119.523C157.6 119.624 158.248 119.831 158.788 120.144C159.334 120.452 159.74 120.841 160.006 121.311C160.273 121.781 160.369 122.291 160.296 122.839C160.221 123.399 159.994 123.871 159.614 124.255C159.234 124.639 158.739 124.911 158.13 125.07C157.528 125.225 156.849 125.252 156.093 125.151C155.337 125.05 154.683 124.845 154.13 124.537C153.585 124.223 153.179 123.831 152.913 123.361C152.652 122.891 152.559 122.377 152.634 121.817C152.707 121.268 152.931 120.802 153.305 120.417C153.685 120.033 154.18 119.764 154.788 119.61C155.402 119.451 156.087 119.422 156.844 119.523ZM156.648 120.986C156.256 120.934 155.902 120.943 155.587 121.012C155.273 121.076 155.022 121.198 154.834 121.379C154.645 121.559 154.532 121.788 154.495 122.065C154.457 122.354 154.505 122.613 154.638 122.842C154.772 123.071 154.982 123.261 155.268 123.411C155.554 123.555 155.893 123.656 156.285 123.714C156.689 123.762 157.046 123.754 157.354 123.689C157.669 123.619 157.924 123.492 158.119 123.306C158.314 123.121 158.431 122.884 158.469 122.595C158.506 122.318 158.452 122.067 158.305 121.842C158.165 121.618 157.952 121.433 157.665 121.29C157.386 121.141 157.047 121.04 156.648 120.986ZM157.985 118.363L156.055 118.105L156.377 115.689L158.308 115.947L157.985 118.363ZM171.254 119.639C171.07 121.013 170.832 122.271 170.539 123.412C170.246 124.554 169.843 125.658 169.331 126.723C168.819 127.783 168.163 128.756 167.364 129.642L165.975 128.628C166.735 127.813 167.351 126.944 167.821 126.019C168.291 125.095 168.658 124.122 168.924 123.1C169.195 122.079 169.419 120.907 169.595 119.585L169.617 119.421L171.254 119.639ZM170.414 121.113L167.487 120.723L167.695 119.164L170.622 119.555L170.414 121.113ZM174.743 120.105C174.54 121.628 174.302 122.992 174.03 124.195C173.758 125.393 173.359 126.582 172.831 127.763C172.304 128.944 171.611 130.015 170.755 130.975L169.385 129.947C170.197 129.056 170.843 128.091 171.322 127.05C171.809 126.005 172.173 124.946 172.416 123.874C172.665 122.797 172.888 121.523 173.085 120.051L173.106 119.886L174.743 120.105ZM173.964 121.587L171.513 121.26L171.721 119.702L174.171 120.028L173.964 121.587ZM179.161 134.74L177.309 134.493L179.395 118.857L181.247 119.104L179.161 134.74ZM175.716 126.024L173.231 125.692L173.439 124.134L175.923 124.465L175.716 126.024ZM176.218 133.616L174.4 133.374L176.339 118.837L178.158 119.08L176.218 133.616ZM196.651 137.074L194.746 136.82L196.832 121.183L198.737 121.437L196.651 137.074ZM200.108 129.586L197.26 129.206L197.471 127.622L200.32 128.002L200.108 129.586ZM195.094 124.97L185.873 123.74L186.08 122.19L195.3 123.42L195.094 124.97ZM190.396 125.374C191.152 125.475 191.806 125.724 192.358 126.12C192.917 126.512 193.329 127.011 193.595 127.616C193.861 128.221 193.946 128.879 193.852 129.589C193.758 130.293 193.503 130.905 193.087 131.425C192.671 131.94 192.143 132.313 191.501 132.545C190.865 132.777 190.169 132.843 189.413 132.742C188.662 132.642 188.008 132.396 187.449 132.004C186.89 131.612 186.478 131.114 186.212 130.508C185.953 129.898 185.87 129.241 185.964 128.537C186.059 127.827 186.311 127.214 186.721 126.699C187.136 126.184 187.664 125.811 188.306 125.58C188.949 125.342 189.645 125.274 190.396 125.374ZM190.184 126.958C189.786 126.905 189.414 126.944 189.067 127.074C188.727 127.205 188.443 127.416 188.216 127.709C187.995 128.003 187.856 128.36 187.8 128.782C187.744 129.197 187.785 129.576 187.921 129.917C188.064 130.259 188.282 130.538 188.577 130.753C188.877 130.964 189.227 131.096 189.625 131.149C190.035 131.203 190.41 131.168 190.75 131.043C191.09 130.912 191.371 130.7 191.592 130.407C191.814 130.113 191.952 129.758 192.007 129.343C192.064 128.922 192.024 128.54 191.887 128.199C191.75 127.858 191.535 127.579 191.241 127.364C190.946 127.148 190.594 127.013 190.184 126.958ZM191.607 123.562L189.693 123.306L190.066 120.51L191.98 120.765L191.607 123.562ZM213.338 129.439L202.481 127.991L202.683 126.476L213.54 127.924L213.338 129.439ZM214.502 132.996L200.199 131.088L200.403 129.564L214.705 131.472L214.502 132.996ZM204.503 127.494L202.581 127.237L203.198 122.614L205.12 122.871L204.503 127.494ZM212.188 138.785L201.106 137.307L201.314 135.748L212.396 137.227L212.188 138.785ZM203.194 136.448L201.255 136.19L201.719 132.709L203.658 132.968L203.194 136.448ZM231.203 130.739L226.692 130.137L226.901 128.57L231.412 129.171L231.203 130.739ZM230.554 135.604L226.043 135.003L226.25 133.453L230.761 134.055L230.554 135.604ZM224.412 126.026C225.186 126.129 225.842 126.449 226.382 126.985C226.928 127.516 227.315 128.222 227.544 129.105C227.779 129.982 227.823 130.975 227.675 132.083C227.527 133.197 227.223 134.15 226.765 134.94C226.314 135.726 225.755 136.306 225.088 136.682C224.427 137.057 223.71 137.194 222.936 137.091C222.157 136.987 221.494 136.669 220.948 136.138C220.403 135.601 220.013 134.891 219.778 134.008C219.55 133.126 219.509 132.128 219.658 131.014C219.806 129.905 220.105 128.958 220.557 128.173C221.015 127.382 221.577 126.802 222.243 126.433C222.91 126.057 223.633 125.922 224.412 126.026ZM224.181 127.757C223.755 127.695 223.354 127.794 222.978 128.055C222.608 128.317 222.296 128.722 222.041 129.27C221.786 129.811 221.607 130.475 221.502 131.26C221.397 132.045 221.396 132.738 221.498 133.339C221.601 133.934 221.796 134.404 222.085 134.748C222.381 135.087 222.742 135.285 223.169 135.342C223.597 135.399 223.994 135.302 224.362 135.052C224.737 134.796 225.052 134.395 225.307 133.847C225.563 133.294 225.744 132.624 225.848 131.839C225.954 131.049 225.955 130.359 225.851 129.769C225.749 129.174 225.553 128.704 225.264 128.36C224.982 128.011 224.621 127.81 224.181 127.757ZM231.313 141.742L229.408 141.488L231.5 125.808L233.404 126.062L231.313 141.742ZM247.331 137.931L245.495 137.686L246.807 127.85L248.643 128.095L247.331 137.931ZM246.564 133.502L243.854 133.14L244.065 131.564L246.775 131.926L246.564 133.502ZM244.042 136.954L242.241 136.714L243.442 127.71L245.243 127.95L244.042 136.954ZM242.535 130.55L234.751 129.511L234.953 127.996L242.737 129.034L242.535 130.55ZM238.58 130.665C239.238 130.753 239.809 130.944 240.293 131.237C240.777 131.525 241.136 131.896 241.369 132.35C241.603 132.799 241.684 133.291 241.613 133.828C241.542 134.359 241.335 134.807 240.993 135.173C240.65 135.538 240.207 135.799 239.663 135.956C239.119 136.113 238.519 136.147 237.861 136.059C237.214 135.973 236.649 135.783 236.165 135.489C235.682 135.196 235.323 134.828 235.088 134.385C234.859 133.943 234.78 133.457 234.851 132.926C234.922 132.389 235.127 131.935 235.464 131.563C235.808 131.186 236.249 130.921 236.786 130.77C237.33 130.613 237.928 130.578 238.58 130.665ZM238.395 132.051C238.072 132.007 237.779 132.024 237.516 132.101C237.254 132.171 237.038 132.298 236.866 132.481C236.702 132.659 236.601 132.883 236.565 133.155C236.53 133.414 236.569 133.654 236.68 133.875C236.798 134.09 236.974 134.27 237.208 134.412C237.442 134.549 237.721 134.639 238.044 134.683C238.367 134.726 238.66 134.712 238.922 134.641C239.191 134.565 239.407 134.438 239.572 134.261C239.738 134.077 239.838 133.856 239.872 133.596C239.908 133.325 239.87 133.082 239.758 132.867C239.646 132.646 239.471 132.467 239.231 132.329C238.997 132.187 238.719 132.094 238.395 132.051ZM239.676 129.648L237.763 129.393L238.105 126.83L240.018 127.086L239.676 129.648ZM242.023 137.425C243.142 137.574 244.089 137.812 244.862 138.139C245.636 138.459 246.205 138.858 246.57 139.336C246.941 139.814 247.087 140.354 247.007 140.954C246.929 141.537 246.649 142.008 246.166 142.366C245.688 142.731 245.031 142.967 244.195 143.073C243.358 143.184 242.385 143.166 241.277 143.018C240.163 142.869 239.219 142.632 238.446 142.306C237.672 141.985 237.1 141.586 236.729 141.107C236.357 140.635 236.21 140.107 236.288 139.524C236.368 138.924 236.65 138.441 237.133 138.077C237.616 137.713 238.274 137.477 239.104 137.371C239.936 137.258 240.909 137.276 242.023 137.425ZM241.829 138.88C241.085 138.775 240.449 138.74 239.922 138.775C239.401 138.805 238.993 138.907 238.7 139.079C238.413 139.246 238.25 139.48 238.21 139.78C238.172 140.063 238.27 140.323 238.503 140.56C238.742 140.791 239.112 140.993 239.611 141.166C240.112 141.332 240.732 141.465 241.471 141.564C242.215 141.663 242.848 141.697 243.369 141.667C243.891 141.631 244.297 141.532 244.589 141.372C244.882 141.205 245.047 140.98 245.084 140.697C245.125 140.392 245.026 140.12 244.788 139.882C244.549 139.645 244.183 139.443 243.688 139.277C243.194 139.106 242.574 138.973 241.829 138.88Z" fill="white"/>
<path d="M190.573 80.0816L222.49 84.3394L226.747 52.4229L194.831 48.1651L190.573 80.0816Z" fill="white"/>
<g opacity="0.6" filter="url(#filter0_d_949_1420)">
<rect y="24.5168" width="152.052" height="152.052" rx="17.8885" transform="rotate(-9.27885 0 24.5168)" fill="#DFF6FF"/>
</g>
<rect opacity="0.8" x="0.513469" y="24.886" width="151.158" height="151.158" rx="17.4413" transform="rotate(-9.27885 0.513469 24.886)" stroke="white" stroke-width="0.894425"/>
<path d="M78.1723 94.0163L73.5173 94.7768L73.2652 93.2338L77.9202 92.4733L78.1723 94.0163ZM78.7863 97.7748L74.1313 98.5353L73.8778 96.9836L78.5328 96.2231L78.7863 97.7748ZM80.65 101.435L78.7362 101.748L76.8687 90.3174L78.7825 90.0047L80.65 101.435ZM81.6746 105.215L71.0544 106.95L70.7981 105.381L81.4183 103.646L81.6746 105.215ZM72.8443 105.826L70.922 106.14L70.2347 101.933L72.157 101.619L72.8443 105.826ZM70.2108 92.361C70.9694 92.2371 71.6843 92.2973 72.3556 92.5416C73.0326 92.785 73.6018 93.1817 74.0634 93.7318C74.5298 94.2751 74.8254 94.9289 74.9503 95.6933C75.0733 96.4461 75.0002 97.1543 74.731 97.8178C74.4675 98.4804 74.0536 99.0348 73.4893 99.481C72.9307 99.9263 72.2721 100.211 71.5135 100.335C70.7377 100.462 70.0084 100.404 69.3257 100.161C68.6429 99.9188 68.0741 99.5249 67.6192 98.9797C67.1643 98.4345 66.8754 97.7855 66.7524 97.0326C66.6275 96.2683 66.6935 95.5524 66.9502 94.885C67.207 94.2177 67.6209 93.6633 68.1919 93.2219C68.762 92.7747 69.435 92.4878 70.2108 92.361ZM70.4897 94.0678C70.0462 94.1344 69.6652 94.294 69.3465 94.5466C69.0327 94.7926 68.8062 95.104 68.6672 95.4807C68.5281 95.8575 68.4962 96.2757 68.5713 96.7355C68.6454 97.1895 68.8084 97.5729 69.0601 97.8858C69.3109 98.1929 69.6242 98.4132 70 98.5465C70.3806 98.6731 70.7926 98.7031 71.2361 98.6366C71.6547 98.5623 72.0213 98.405 72.3361 98.1648C72.6499 97.9188 72.8764 97.6075 73.0154 97.2307C73.1545 96.854 73.1874 96.4415 73.1142 95.9932C73.0391 95.5335 72.8756 95.1472 72.6239 94.8343C72.3722 94.5214 72.0584 94.2983 71.6826 94.165C71.3059 94.0259 70.9082 93.9935 70.4897 94.0678ZM95.4491 98.8404L93.5268 99.1545L91.6874 87.8964L93.6098 87.5823L95.4491 98.8404ZM96.545 102.786L85.7955 104.542L85.5392 102.973L96.2887 101.217L96.545 102.786ZM87.5701 103.27L85.6392 103.585L84.9533 99.387L86.8842 99.0715L87.5701 103.27ZM85.2849 89.9867C86.0723 89.8581 86.8121 89.9083 87.5045 90.1374C88.2026 90.3656 88.781 90.7461 89.2398 91.2788C89.7043 91.8107 89.9971 92.4473 90.1182 93.1886C90.2421 93.9472 90.169 94.6554 89.8989 95.3132C89.6335 95.9642 89.2063 96.509 88.6171 96.9475C88.0336 97.385 87.3482 97.6681 86.5609 97.7967C85.7736 97.9254 85.0337 97.8751 84.3414 97.646C83.6548 97.416 83.0763 97.0355 82.6061 96.5046C82.1406 95.967 81.8459 95.319 81.722 94.5604C81.6009 93.819 81.6759 93.1223 81.947 92.4703C82.2238 91.8174 82.6511 91.2726 83.2288 90.836C83.8122 90.3984 84.4976 90.1154 85.2849 89.9867ZM85.5596 91.6677C85.1161 91.7342 84.7313 91.8886 84.405 92.1307C84.0835 92.3661 83.8499 92.6698 83.7042 93.0417C83.5585 93.4136 83.5213 93.818 83.5926 94.2548C83.6659 94.703 83.8312 95.0831 84.0887 95.3951C84.3452 95.7013 84.6638 95.9177 85.0444 96.0443C85.4298 96.1643 85.8438 96.1881 86.2863 96.1158C86.723 96.0444 87.1022 95.891 87.4236 95.6556C87.7441 95.4144 87.9744 95.1084 88.1144 94.7374C88.2592 94.3597 88.295 93.9467 88.2217 93.4985C88.1504 93.0617 87.9864 92.6902 87.7299 92.384C87.4791 92.0769 87.1639 91.8629 86.7842 91.742C86.4036 91.6154 85.9954 91.5906 85.5596 91.6677ZM103.622 89.168L96.7433 90.2919L96.4926 88.7575L103.372 87.6336L103.622 89.168ZM102.16 97.8237L100.281 98.1307L99.419 92.8551L101.298 92.548L102.16 97.8237ZM104.697 88.5411C104.812 89.2834 104.906 89.9083 104.977 90.4159C105.047 90.9178 105.11 91.5388 105.166 92.279C105.221 93.0134 105.248 93.8085 105.246 94.6644L103.323 94.8104C103.318 93.6252 103.267 92.5893 103.169 91.7025C103.076 90.809 102.948 89.8594 102.783 88.8537L102.604 87.7589L104.518 87.4463L104.697 88.5411ZM110.305 100.821L108.383 101.135L105.84 85.5665L107.762 85.2525L110.305 100.821ZM111.312 92.8414L108.501 93.3006L108.238 91.6886L111.048 91.2294L111.312 92.8414ZM97.1522 98.0489C99.0918 97.7143 100.827 97.3924 102.358 97.0833C103.893 96.7676 105.342 96.4099 106.705 96.0102L107.051 97.4229C105.64 97.8894 104.14 98.2938 102.55 98.6362C100.965 98.9777 99.3156 99.2826 97.6011 99.5509L97.1522 98.0489ZM59.7867 131.109L57.873 131.421L56.3379 122.025L58.2516 121.713L59.7867 131.109ZM61.3395 126.908L58.6155 127.353L58.3536 125.749L61.0776 125.304L61.3395 126.908ZM60.7655 137.1L50.7056 138.743L49.8493 133.502L59.9093 131.859L60.7655 137.1ZM52.35 136.891L58.617 135.867L58.2593 133.677L51.9923 134.701L52.35 136.891ZM55.713 125.243L46.4634 126.754L46.2127 125.219L55.4623 123.708L55.713 125.243ZM51.1841 126.558C51.9369 126.435 52.617 126.445 53.2245 126.587C53.8367 126.723 54.3385 126.978 54.7298 127.35C55.1211 127.723 55.3614 128.182 55.4506 128.728C55.5416 129.286 55.461 129.803 55.2086 130.281C54.9563 130.759 54.562 131.163 54.0258 131.492C53.4944 131.815 52.8523 132.038 52.0995 132.161C51.3467 132.284 50.6612 132.278 50.0432 132.143C49.4301 132.001 48.9278 131.744 48.5365 131.371C48.151 130.998 47.9126 130.532 47.8216 129.975C47.7324 129.429 47.8111 128.917 48.0577 128.44C48.31 127.963 48.7048 127.562 49.2419 127.238C49.7838 126.908 50.4312 126.681 51.1841 126.558ZM51.4221 128.015C51.0313 128.079 50.6954 128.189 50.4144 128.347C50.1325 128.5 49.9275 128.69 49.7994 128.917C49.6714 129.144 49.6299 129.396 49.6749 129.672C49.7219 129.959 49.8427 130.193 50.0374 130.374C50.2321 130.554 50.4878 130.675 50.8045 130.735C51.1202 130.79 51.474 130.788 51.8657 130.73C52.267 130.659 52.6058 130.547 52.882 130.396C53.163 130.238 53.3699 130.042 53.5028 129.808C53.6357 129.574 53.6786 129.313 53.6317 129.025C53.5866 128.75 53.4614 128.525 53.2562 128.352C53.0566 128.178 52.799 128.064 52.4833 128.009C52.1723 127.948 51.8186 127.95 51.4221 128.015ZM51.9397 125.116L50.0174 125.43L49.6244 123.025L51.5468 122.711L51.9397 125.116ZM65.0072 122.485C65.2306 123.853 65.3677 125.126 65.4185 126.303C65.4693 127.481 65.4043 128.654 65.2235 129.822C65.0417 130.985 64.6968 132.106 64.1889 133.186L62.5652 132.62C63.0566 131.619 63.393 130.608 63.5743 129.587C63.7556 128.566 63.825 127.528 63.7824 126.473C63.7456 125.417 63.6197 124.231 63.4047 122.915L63.3779 122.751L65.0072 122.485ZM64.6314 124.14L61.7177 124.616L61.4642 123.064L64.3779 122.588L64.6314 124.14ZM68.4811 121.918C68.729 123.435 68.8974 124.809 68.9863 126.039C69.0743 127.264 69.0373 128.518 68.8752 129.801C68.7131 131.084 68.3617 132.31 67.8209 133.478L66.2116 132.891C66.7302 131.803 67.0678 130.692 67.2246 129.557C67.3862 128.416 67.4276 127.297 67.3488 126.2C67.2748 125.097 67.1181 123.813 66.8787 122.348L66.8519 122.184L68.4811 121.918ZM68.1657 123.562L65.7262 123.961L65.4727 122.409L67.9122 122.011L68.1657 123.562ZM76.9586 134.64L75.1138 134.941L72.5703 119.373L74.4151 119.072L76.9586 134.64ZM71.1305 127.299L68.6565 127.704L68.403 126.152L70.877 125.748L71.1305 127.299ZM73.816 134.419L72.0057 134.715L69.641 120.241L71.4513 119.945L73.816 134.419ZM90.5187 132.425L88.6222 132.735L86.0787 117.166L87.9752 116.856L90.5187 132.425ZM91.6534 124.256L88.8173 124.72L88.5596 123.142L91.3957 122.679L91.6534 124.256ZM85.5141 121.294L76.3334 122.794L76.0813 121.251L85.262 119.751L85.5141 121.294ZM81.136 123.045C81.8888 122.922 82.587 122.97 83.2306 123.19C83.8789 123.402 84.4182 123.76 84.8483 124.262C85.2785 124.764 85.5513 125.368 85.6668 126.075C85.7813 126.776 85.7151 127.436 85.468 128.055C85.22 128.668 84.8226 129.178 84.2756 129.586C83.7343 129.993 83.0873 130.258 82.3345 130.381C81.5874 130.503 80.8896 130.458 80.2413 130.245C79.5929 130.032 79.0536 129.675 78.6235 129.173C78.1982 128.664 77.9282 128.059 77.8137 127.358C77.6982 126.651 77.7616 125.992 78.0038 125.38C78.2518 124.767 78.6493 124.257 79.1963 123.849C79.7423 123.435 80.3889 123.167 81.136 123.045ZM81.3937 124.623C80.9971 124.687 80.6521 124.832 80.3584 125.057C80.0705 125.281 79.8604 125.566 79.7281 125.912C79.6016 126.258 79.5726 126.64 79.6412 127.06C79.7088 127.473 79.8575 127.824 80.0873 128.111C80.3228 128.397 80.6127 128.6 80.9569 128.721C81.306 128.835 81.6788 128.86 82.0753 128.795C82.4834 128.728 82.8318 128.586 83.1207 128.367C83.4086 128.143 83.6158 127.859 83.7423 127.514C83.8688 127.168 83.8983 126.789 83.8307 126.375C83.7621 125.956 83.6129 125.602 83.3832 125.315C83.1534 125.028 82.8663 124.824 82.5221 124.704C82.1779 124.583 81.8017 124.556 81.3937 124.623ZM81.7687 120.959L79.8636 121.27L79.4087 118.486L81.3138 118.175L81.7687 120.959ZM104.27 120.274L93.4601 122.041L93.2137 120.532L104.024 118.766L104.27 120.274ZM106.417 123.34L92.1762 125.667L91.9284 124.149L106.169 121.823L106.417 123.34ZM95.2513 120.978L93.3376 121.291L92.5855 116.687L94.4992 116.375L95.2513 120.978ZM105.883 129.552L94.849 131.354L94.5955 129.803L105.63 128L105.883 129.552ZM96.5983 129.927L94.6674 130.242L94.1012 126.777L96.0322 126.461L96.5983 129.927ZM121.743 116.331L117.252 117.065L116.997 115.505L121.488 114.771L121.743 116.331ZM122.535 121.176L118.044 121.909L117.792 120.366L122.283 119.633L122.535 121.176ZM113.877 113.793C114.647 113.667 115.368 113.782 116.039 114.139C116.716 114.488 117.292 115.052 117.767 115.83C118.247 116.601 118.577 117.539 118.758 118.642C118.939 119.751 118.925 120.751 118.716 121.64C118.513 122.523 118.146 123.241 117.617 123.794C117.093 124.345 116.447 124.684 115.676 124.81C114.901 124.936 114.174 124.825 113.498 124.475C112.82 124.12 112.241 123.554 111.76 122.777C111.285 121.999 110.956 121.055 110.775 119.946C110.595 118.843 110.607 117.85 110.811 116.967C111.019 116.077 111.389 115.359 111.919 114.812C112.448 114.259 113.101 113.92 113.877 113.793ZM114.158 115.517C113.732 115.581 113.377 115.792 113.094 116.151C112.816 116.509 112.634 116.987 112.549 117.585C112.463 118.178 112.484 118.865 112.611 119.646C112.739 120.428 112.939 121.091 113.211 121.637C113.482 122.177 113.806 122.569 114.182 122.815C114.563 123.053 114.967 123.138 115.392 123.068C115.817 122.999 116.17 122.791 116.449 122.444C116.734 122.091 116.919 121.615 117.004 121.017C117.088 120.413 117.066 119.721 116.939 118.939C116.81 118.152 116.611 117.491 116.341 116.957C116.069 116.417 115.746 116.025 115.369 115.779C114.998 115.527 114.594 115.44 114.158 115.517ZM125.043 126.829L123.146 127.138L120.596 111.527L122.492 111.217L125.043 126.829ZM139.264 118.531L137.437 118.83L135.837 109.037L137.664 108.738L139.264 118.531ZM137.245 114.515L134.547 114.956L134.29 113.387L136.989 112.946L137.245 114.515ZM135.833 118.552L134.04 118.845L132.576 109.879L134.369 109.586L135.833 118.552ZM132.532 112.86L124.782 114.126L124.536 112.618L132.285 111.352L132.532 112.86ZM128.781 114.119C129.436 114.012 130.038 114.029 130.586 114.169C131.133 114.304 131.584 114.555 131.939 114.922C132.293 115.283 132.514 115.731 132.601 116.265C132.688 116.794 132.62 117.283 132.398 117.732C132.177 118.181 131.828 118.56 131.354 118.868C130.879 119.175 130.314 119.383 129.659 119.49C129.015 119.595 128.419 119.577 127.871 119.437C127.323 119.296 126.872 119.048 126.519 118.693C126.172 118.336 125.955 117.894 125.869 117.365C125.781 116.831 125.845 116.336 126.06 115.882C126.28 115.422 126.625 115.041 127.095 114.74C127.57 114.432 128.132 114.225 128.781 114.119ZM129.007 115.498C128.685 115.551 128.409 115.652 128.18 115.802C127.95 115.945 127.779 116.13 127.668 116.354C127.562 116.572 127.531 116.816 127.576 117.086C127.618 117.345 127.724 117.564 127.895 117.742C128.071 117.914 128.291 118.034 128.556 118.103C128.82 118.166 129.113 118.172 129.435 118.119C129.757 118.066 130.033 117.968 130.263 117.824C130.498 117.674 130.668 117.49 130.774 117.272C130.879 117.048 130.911 116.807 130.869 116.548C130.824 116.278 130.717 116.057 130.548 115.884C130.377 115.705 130.156 115.585 129.887 115.523C129.622 115.454 129.328 115.446 129.007 115.498ZM129.535 112.828L127.63 113.139L127.213 110.587L129.118 110.276L129.535 112.828ZM134.038 119.588C135.153 119.406 136.128 119.359 136.962 119.447C137.796 119.529 138.456 119.746 138.945 120.097C139.438 120.447 139.734 120.921 139.832 121.518C139.927 122.099 139.795 122.631 139.437 123.114C139.086 123.602 138.526 124.018 137.756 124.362C136.987 124.712 136.051 124.977 134.948 125.157C133.839 125.338 132.867 125.385 132.032 125.297C131.199 125.215 130.535 124.999 130.041 124.649C129.548 124.305 129.255 123.842 129.16 123.262C129.062 122.664 129.192 122.121 129.548 121.632C129.905 121.143 130.466 120.727 131.23 120.384C131.993 120.035 132.929 119.77 134.038 119.588ZM134.275 121.037C133.532 121.152 132.914 121.303 132.419 121.49C131.93 121.671 131.569 121.886 131.339 122.136C131.113 122.379 131.025 122.65 131.073 122.949C131.119 123.231 131.288 123.451 131.58 123.61C131.876 123.762 132.288 123.848 132.817 123.868C133.344 123.882 133.976 123.829 134.711 123.709C135.453 123.588 136.068 123.437 136.558 123.257C137.047 123.071 137.407 122.858 137.64 122.62C137.871 122.375 137.964 122.112 137.918 121.831C137.868 121.526 137.695 121.295 137.398 121.137C137.1 120.979 136.691 120.893 136.169 120.878C135.647 120.857 135.015 120.91 134.275 121.037Z" fill="white"/>
<path d="M70.0825 79.3373L101.86 74.1455L96.6687 42.3675L64.8907 47.5593L70.0825 79.3373Z" fill="white"/>
<defs>
<filter id="filter0_d_949_1420" x="0.858612" y="2.64752" width="176.44" height="176.44" filterUnits="userSpaceOnUse" color-interpolation-filters="sRGB">
<feFlood flood-opacity="0" result="BackgroundImageFix"/>
<feColorMatrix in="SourceAlpha" type="matrix" values="0 0 0 0 0 0 0 0 0 0 0 0 0 0 0 0 0 0 127 0" result="hardAlpha"/>
<feOffset dx="1.78885" dy="3.5777"/>
<feGaussianBlur stdDeviation="1.78885"/>
<feComposite in2="hardAlpha" operator="out"/>
<feColorMatrix type="matrix" values="0 0 0 0 0 0 0 0 0 0 0 0 0 0 0 0 0 0 0.25 0"/>
<feBlend mode="normal" in2="BackgroundImageFix" result="effect1_dropShadow_949_1420"/>
<feBlend mode="normal" in="SourceGraphic" in2="effect1_dropShadow_949_1420" result="shape"/>
</filter>
</defs>
</svg>
