<svg width="31" height="24" viewBox="0 0 31 24" fill="none" xmlns="http://www.w3.org/2000/svg">
<path opacity="0.7" d="M31 11.6982C30.9966 14.7996 29.7858 17.773 27.6334 19.9661C25.4809 22.1592 22.5625 23.3928 19.5185 23.3962H8.03704C5.90548 23.3962 3.86123 22.5335 2.35399 20.9978C0.846757 19.4622 0 17.3793 0 15.2076C0 13.0358 0.846757 10.953 2.35399 9.41732C3.86123 7.88165 5.90548 7.01891 8.03704 7.01891C8.34346 7.01895 8.64963 7.03652 8.95412 7.07156C10.0013 4.59838 11.8532 2.56862 14.1978 1.32435C16.5424 0.0800859 19.2364 -0.302603 21.8256 0.240783C24.4149 0.784169 26.7411 2.2204 28.4123 4.30743C30.0835 6.39446 30.9974 9.00467 31 11.6982ZM27.5556 11.6982C27.5429 9.57463 26.7219 7.53898 25.2656 6.01988C23.8092 4.50078 21.8311 3.61678 19.7477 3.55405C17.6644 3.49132 15.6385 4.25475 14.0966 5.68357C12.5547 7.11239 11.6172 9.09509 11.4815 11.2141C11.4552 11.6795 11.2486 12.1152 10.907 12.4254C10.5655 12.7355 10.117 12.8947 9.66023 12.868C9.20347 12.8412 8.77585 12.6307 8.47144 12.2827C8.16703 11.9347 8.01077 11.4777 8.03704 11.0123C8.04565 10.85 8.05857 10.6892 8.07435 10.5283H8.03704C6.81901 10.5283 5.65086 11.0213 4.78958 11.8989C3.92831 12.7764 3.44444 13.9666 3.44444 15.2076C3.44444 16.4486 3.92831 17.6388 4.78958 18.5163C5.65086 19.3938 6.81901 19.8868 8.03704 19.8868H19.5185C21.6494 19.8845 23.6923 19.021 25.199 17.4858C26.7058 15.9507 27.5533 13.8692 27.5556 11.6982Z" fill="white"/>
</svg>
