<svg xmlns="http://www.w3.org/2000/svg" fill="none" viewBox="0 0 440 380"><path fill="#2c2c2c" d="M0 0h440v380H0z"/><path fill="#f8f7f5" d="m210.5 180.91-4.13 5.4c-.47.6-.5 1.46-.02 2.05.74.9 2.1.82 2.75-.03l2.31-3c.37-.49.37-1.15 0-1.63l-.79-1.03a1.6 1.6 0 0 1-.12-1.75zm15.21 0-4.13 5.4c-.47.6-.5 1.46-.02 2.05.74.9 2.1.82 2.75-.03l2.31-3c.37-.49.37-1.15 0-1.63l-.79-1.03a1.6 1.6 0 0 1-.12-1.75zm.56-3.13-7.7 10.51c-.35.48-.9.73-1.44.71-.54 0-1.07-.24-1.41-.7l-2.87-3.92-1.41-1.93a1.74 1.74 0 0 1 .36-2.42 1.7 1.7 0 0 1 2.39.36l2.94 4.01 6.36-8.7a1.7 1.7 0 0 1 2.42-.36c.76.57.93 1.67.36 2.44m7.04 10.88c-.75.56-1.83.4-2.4-.37l-2.86-3.91-1.41-1.93a1.75 1.75 0 0 1 .35-2.42 1.7 1.7 0 0 1 2.4.36l4.28 5.86c.56.76.4 1.85-.36 2.41m-56.93 10.04c-.08-.69-.72-1.09-1.57-1.09-.93 0-1.55.5-1.55 1.16 0 .75.83 1.02 1.37 1.16l.7.2c.76.19 2 .63 2 1.95 0 1.15-.92 2.05-2.56 2.05-1.53 0-2.48-.8-2.55-1.97h.9c.07.8.8 1.17 1.65 1.17.97 0 1.7-.5 1.7-1.27 0-.69-.65-.95-1.4-1.16l-.86-.24c-1.11-.32-1.8-.89-1.8-1.85 0-1.19 1.07-1.98 2.43-1.98 1.37 0 2.36.8 2.4 1.88zm4.71 5.3v-7.07h4.3v.78h-3.42v2.36h3.19v.78h-3.19v2.37h3.46v.78zm14.15-3.53c0 2.23-1.31 3.63-3.12 3.63-1.82 0-3.13-1.4-3.13-3.63 0-2.24 1.31-3.64 3.13-3.64 1.8 0 3.12 1.4 3.12 3.63m-.84 0c0-1.83-1-2.82-2.28-2.82s-2.28.99-2.28 2.81c0 1.83 1 2.82 2.28 2.82s2.28-.99 2.28-2.81m8.5-1.76c-.09-.7-.72-1.1-1.57-1.1-.94 0-1.56.5-1.56 1.16 0 .75.83 1.02 1.37 1.16l.7.2c.77.19 2 .63 2 1.95 0 1.15-.92 2.05-2.56 2.05-1.52 0-2.47-.8-2.55-1.97h.9c.08.8.8 1.17 1.65 1.17.98 0 1.7-.5 1.7-1.27 0-.69-.65-.95-1.39-1.16l-.87-.24c-1.11-.32-1.8-.89-1.8-1.85 0-1.19 1.07-1.98 2.44-1.98s2.35.8 2.39 1.88zm5.01 5.29h-.92l2.59-7.07h.93l2.59 7.07h-.93l-.7-2h-2.85zm.98-2.76h2.3l-1.12-3.17H210zm13.28-4.31V204h-.84l-3.83-5.5h-.07v5.5h-.88v-7.07h.85l3.83 5.52h.07v-5.52zm8.89 2.23c-.21-.98-1.05-1.5-1.98-1.5-1.28 0-2.27.98-2.27 2.8 0 1.83 1 2.82 2.27 2.82.93 0 1.76-.53 1.97-1.5h.88c-.25 1.45-1.41 2.32-2.85 2.32-1.81 0-3.12-1.4-3.12-3.63 0-2.24 1.3-3.64 3.12-3.64 1.43 0 2.59.86 2.85 2.33zm4.6 4.84v-7.07h.88v3.14h3.74v-3.14h.9V204h-.9v-3.15h-3.74V204zm9.56 0v-7.07h4.3v.78h-3.42v2.36h3.19v.78h-3.19v2.37h3.46v.78zm13-4.84c-.2-.98-1.04-1.5-1.97-1.5-1.28 0-2.28.98-2.28 2.8 0 1.83 1 2.82 2.28 2.82.93 0 1.76-.53 1.97-1.5h.88c-.25 1.45-1.41 2.32-2.85 2.32-1.82 0-3.12-1.4-3.12-3.63 0-2.24 1.3-3.64 3.12-3.64 1.43 0 2.59.86 2.85 2.33zm4.61 4.84v-7.07h.88v3.5h.09l3.14-3.5h1.16l-2.96 3.2 2.96 3.87h-1.08l-2.43-3.27-.88 1V204z" opacity=".6"/></svg>