<svg width="691" height="199" viewBox="0 0 691 199" fill="none" xmlns="http://www.w3.org/2000/svg">
<path d="M10.7109 176.031H12.4219L9.63281 193H7.92188L10.7109 176.031ZM0.492188 186.625H13.1719L12.8906 188.312H0.210938L0.492188 186.625ZM4.73438 176.031H6.44531L3.65625 193H1.94531L4.73438 176.031ZM1.47656 180.719H14.1797L13.8984 182.406H1.21875L1.47656 180.719ZM31.3538 182.688H25.4944V181.188H31.3538V182.688ZM21.9788 179.664C21.9788 181.164 21.7248 182.637 21.217 184.082C20.7092 185.527 20.0139 186.809 19.1311 187.926C18.2483 189.043 17.26 189.898 16.1663 190.492L14.9709 189.016C15.9866 188.516 16.9123 187.773 17.7483 186.789C18.5842 185.805 19.2444 184.684 19.7288 183.426C20.2131 182.168 20.4553 180.914 20.4553 179.664V175.867H21.9788V179.664ZM22.3303 179.664C22.3303 180.898 22.5725 182.117 23.0569 183.32C23.5413 184.523 24.1975 185.59 25.0256 186.52C25.8538 187.449 26.7678 188.148 27.7678 188.617L26.6663 190.117C25.5569 189.539 24.5608 188.715 23.678 187.645C22.7952 186.574 22.0998 185.344 21.592 183.953C21.0842 182.562 20.8303 181.133 20.8303 179.664V175.867H22.3303V179.664ZM32.2678 194.945H30.4397V174.062H32.2678V194.945ZM42.2231 177.93C42.2231 179.258 41.9848 180.496 41.5083 181.645C41.0317 182.793 40.3559 183.789 39.4809 184.633C38.6059 185.477 37.5903 186.125 36.4341 186.578L35.4263 185.102C36.4731 184.727 37.395 184.18 38.1919 183.461C38.9888 182.742 39.6059 181.906 40.0434 180.953C40.4809 180 40.6997 178.992 40.6997 177.93V175.352H42.2231V177.93ZM42.5044 178C42.5044 178.938 42.7231 179.844 43.1606 180.719C43.5981 181.594 44.2153 182.367 45.0122 183.039C45.8091 183.711 46.7153 184.227 47.7309 184.586L46.7934 186.062C45.6528 185.641 44.6489 185.031 43.7817 184.234C42.9145 183.438 42.2388 182.5 41.7544 181.422C41.27 180.344 41.0278 179.203 41.0278 178V175.352H42.5044V178ZM51.7856 189.461H49.9575V174.062H51.7856V189.461ZM54.9263 182.031H51.1997V180.461H54.9263V182.031ZM52.7466 194.453H38.7778V192.906H52.7466V194.453ZM40.6528 193.656H38.7778V187.984H40.6528V193.656ZM61.9753 193.258C60.8034 193.258 59.7761 192.977 58.8933 192.414C58.0105 191.852 57.3347 191.074 56.8659 190.082C56.3972 189.09 56.1628 187.961 56.1628 186.695C56.1628 185.414 56.405 184.273 56.8894 183.273C57.3737 182.273 58.0495 181.496 58.9167 180.941C59.7839 180.387 60.7878 180.109 61.9284 180.109C62.8347 180.109 63.6511 180.273 64.3777 180.602C65.1042 180.93 65.6941 181.398 66.1472 182.008C66.6003 182.617 66.8816 183.32 66.9909 184.117H64.9753C64.8816 183.711 64.7019 183.34 64.4362 183.004C64.1706 182.668 63.8308 182.398 63.4167 182.195C63.0027 181.992 62.5222 181.891 61.9753 181.891C61.2253 181.891 60.5652 182.086 59.9948 182.477C59.4245 182.867 58.9792 183.418 58.6589 184.129C58.3386 184.84 58.1784 185.672 58.1784 186.625C58.1784 187.594 58.3347 188.441 58.6472 189.168C58.9597 189.895 59.4011 190.457 59.9714 190.855C60.5417 191.254 61.2097 191.453 61.9753 191.453C62.4753 191.453 62.9323 191.367 63.3464 191.195C63.7605 191.023 64.1081 190.77 64.3894 190.434C64.6706 190.098 64.8659 189.703 64.9753 189.25H66.9909C66.8816 190.016 66.6081 190.699 66.1706 191.301C65.7331 191.902 65.155 192.379 64.4362 192.73C63.7175 193.082 62.8972 193.258 61.9753 193.258ZM71.2509 193H69.2353V176.031H71.2509V182.266H71.415C71.7275 181.578 72.1884 181.047 72.7978 180.672C73.4072 180.297 74.1963 180.109 75.165 180.109C76.0556 180.109 76.8252 180.285 77.4736 180.637C78.122 180.988 78.622 181.523 78.9736 182.242C79.3252 182.961 79.5009 183.852 79.5009 184.914V193H77.4853V185.055C77.4853 184.398 77.3681 183.832 77.1338 183.355C76.8994 182.879 76.5634 182.52 76.1259 182.277C75.6884 182.035 75.165 181.914 74.5556 181.914C73.915 181.914 73.3486 182.047 72.8564 182.312C72.3642 182.578 71.9736 182.973 71.6845 183.496C71.3955 184.02 71.2509 184.641 71.2509 185.359V193ZM87.8391 193.258C86.6359 193.258 85.5852 192.988 84.6867 192.449C83.7883 191.91 83.0969 191.148 82.6125 190.164C82.1281 189.18 81.8859 188.039 81.8859 186.742C81.8859 185.445 82.1281 184.293 82.6125 183.285C83.0969 182.277 83.7727 181.496 84.6398 180.941C85.507 180.387 86.5109 180.109 87.6516 180.109C88.6203 180.109 89.5188 180.32 90.3469 180.742C91.175 181.164 91.8469 181.852 92.3625 182.805C92.8781 183.758 93.1359 184.977 93.1359 186.461V187.305H83.2922V185.594H91.0969C91.0969 184.875 90.9563 184.238 90.675 183.684C90.3938 183.129 89.9914 182.691 89.468 182.371C88.9445 182.051 88.3391 181.891 87.6516 181.891C86.9016 181.891 86.2453 182.074 85.6828 182.441C85.1203 182.809 84.6828 183.301 84.3703 183.918C84.0578 184.535 83.9016 185.195 83.9016 185.898V187.047C83.9016 187.984 84.0656 188.785 84.3938 189.449C84.7219 190.113 85.1828 190.617 85.7766 190.961C86.3703 191.305 87.0578 191.477 87.8391 191.477C88.3234 191.477 88.7609 191.41 89.1516 191.277C89.5422 191.145 89.8742 190.973 90.1477 190.762C90.4211 190.551 90.6359 190.305 90.7922 190.023H92.9484C92.7453 190.664 92.4094 191.227 91.9406 191.711C91.4719 192.195 90.8859 192.574 90.1828 192.848C89.4797 193.121 88.6984 193.258 87.8391 193.258ZM100.724 193.258C99.5522 193.258 98.5248 192.977 97.642 192.414C96.7592 191.852 96.0834 191.074 95.6147 190.082C95.1459 189.09 94.9116 187.961 94.9116 186.695C94.9116 185.414 95.1537 184.273 95.6381 183.273C96.1225 182.273 96.7983 181.496 97.6655 180.941C98.5327 180.387 99.5366 180.109 100.677 180.109C101.583 180.109 102.4 180.273 103.126 180.602C103.853 180.93 104.443 181.398 104.896 182.008C105.349 182.617 105.63 183.32 105.74 184.117H103.724C103.63 183.711 103.451 183.34 103.185 183.004C102.919 182.668 102.58 182.398 102.165 182.195C101.751 181.992 101.271 181.891 100.724 181.891C99.9741 181.891 99.3139 182.086 98.7436 182.477C98.1733 182.867 97.728 183.418 97.4077 184.129C97.0873 184.84 96.9272 185.672 96.9272 186.625C96.9272 187.594 97.0834 188.441 97.3959 189.168C97.7084 189.895 98.1498 190.457 98.7202 190.855C99.2905 191.254 99.9584 191.453 100.724 191.453C101.224 191.453 101.681 191.367 102.095 191.195C102.509 191.023 102.857 190.77 103.138 190.434C103.419 190.098 103.615 189.703 103.724 189.25H105.74C105.63 190.016 105.357 190.699 104.919 191.301C104.482 191.902 103.904 192.379 103.185 192.73C102.466 193.082 101.646 193.258 100.724 193.258ZM109.836 185.898H110.234L115.742 180.273H118.226L112.297 186.297H112.109L109.859 188.383L109.836 185.898ZM107.984 176.031H110V193H107.984V176.031ZM111.148 186.742L112.554 185.336L118.625 193H116.07L111.148 186.742ZM122.58 188.219H120.611L120.447 176.031H122.744L122.58 188.219ZM121.596 193.141C121.33 193.141 121.08 193.07 120.846 192.93C120.611 192.789 120.428 192.602 120.295 192.367C120.162 192.133 120.096 191.883 120.096 191.617C120.096 191.352 120.162 191.102 120.295 190.867C120.428 190.633 120.611 190.449 120.846 190.316C121.08 190.184 121.33 190.117 121.596 190.117C121.861 190.117 122.111 190.184 122.346 190.316C122.58 190.449 122.764 190.633 122.896 190.867C123.029 191.102 123.096 191.352 123.096 191.617C123.096 191.883 123.029 192.133 122.896 192.367C122.764 192.602 122.58 192.789 122.346 192.93C122.111 193.07 121.861 193.141 121.596 193.141ZM140.944 176.031H142.655L139.866 193H138.155L140.944 176.031ZM130.725 186.625H143.405L143.123 188.312H130.444L130.725 186.625ZM134.967 176.031H136.678L133.889 193H132.178L134.967 176.031ZM131.709 180.719H144.413L144.131 182.406H131.452L131.709 180.719ZM144.805 193L151.016 176.031H153.243L159.454 193H157.227L152.188 178.773H152.048L147.008 193H144.805ZM156.477 186.367V188.219H147.782V186.367H156.477ZM163.62 193H161.511V176.031H163.62V193ZM181.989 180.273H175.568V178.727H181.989V180.273ZM181.989 186.859H175.568V185.336H181.989V186.859ZM171.7 175.68C172.716 175.68 173.614 175.98 174.396 176.582C175.177 177.184 175.79 178.031 176.235 179.125C176.681 180.219 176.903 181.492 176.903 182.945C176.903 184.398 176.681 185.672 176.235 186.766C175.79 187.859 175.177 188.703 174.396 189.297C173.614 189.891 172.716 190.188 171.7 190.188C170.685 190.188 169.782 189.891 168.993 189.297C168.204 188.703 167.587 187.859 167.142 186.766C166.696 185.672 166.474 184.398 166.474 182.945C166.474 181.492 166.696 180.219 167.142 179.125C167.587 178.031 168.204 177.184 168.993 176.582C169.782 175.98 170.685 175.68 171.7 175.68ZM171.7 177.32C171.028 177.32 170.427 177.555 169.896 178.023C169.364 178.492 168.954 179.148 168.665 179.992C168.376 180.836 168.232 181.82 168.232 182.945C168.232 184.055 168.376 185.035 168.665 185.887C168.954 186.738 169.364 187.395 169.896 187.855C170.427 188.316 171.028 188.547 171.7 188.547C172.372 188.547 172.974 188.316 173.505 187.855C174.036 187.395 174.446 186.738 174.735 185.887C175.025 185.035 175.169 184.055 175.169 182.945C175.169 181.82 175.025 180.836 174.735 179.992C174.446 179.148 174.04 178.492 173.517 178.023C172.993 177.555 172.388 177.32 171.7 177.32ZM183.372 194.945H181.544V174.062H183.372V194.945ZM204.296 187.258H202.538V174.062H204.296V187.258ZM203.054 181.281H199.023V179.758H203.054V181.281ZM199.749 186.508H198.015V174.484H199.749V186.508ZM197.171 178.047H186.484V176.57H197.171V178.047ZM191.851 179.172C192.726 179.172 193.503 179.316 194.183 179.605C194.863 179.895 195.39 180.309 195.765 180.848C196.14 181.387 196.327 182.016 196.327 182.734C196.327 183.438 196.14 184.055 195.765 184.586C195.39 185.117 194.863 185.531 194.183 185.828C193.503 186.125 192.726 186.273 191.851 186.273C190.992 186.273 190.222 186.125 189.542 185.828C188.863 185.531 188.335 185.117 187.96 184.586C187.585 184.055 187.398 183.438 187.398 182.734C187.398 182.016 187.585 181.387 187.96 180.848C188.335 180.309 188.859 179.895 189.531 179.605C190.202 179.316 190.976 179.172 191.851 179.172ZM191.851 180.531C191.304 180.531 190.82 180.621 190.398 180.801C189.976 180.98 189.644 181.238 189.402 181.574C189.16 181.91 189.038 182.297 189.038 182.734C189.038 183.156 189.16 183.531 189.402 183.859C189.644 184.188 189.976 184.441 190.398 184.621C190.82 184.801 191.304 184.891 191.851 184.891C192.398 184.891 192.886 184.801 193.316 184.621C193.745 184.441 194.077 184.188 194.312 183.859C194.546 183.531 194.663 183.156 194.663 182.734C194.663 182.297 194.546 181.91 194.312 181.574C194.077 181.238 193.745 180.98 193.316 180.801C192.886 180.621 192.398 180.531 191.851 180.531ZM192.765 177.414H190.937V174.227H192.765V177.414ZM197.406 187.609C198.874 187.609 200.132 187.75 201.179 188.031C202.226 188.312 203.027 188.727 203.581 189.273C204.136 189.82 204.413 190.484 204.413 191.266C204.413 192.016 204.136 192.66 203.581 193.199C203.027 193.738 202.222 194.148 201.167 194.43C200.113 194.711 198.859 194.852 197.406 194.852C195.952 194.852 194.702 194.711 193.656 194.43C192.609 194.148 191.808 193.738 191.253 193.199C190.699 192.66 190.421 192.016 190.421 191.266C190.421 190.484 190.699 189.82 191.253 189.273C191.808 188.727 192.609 188.312 193.656 188.031C194.702 187.75 195.952 187.609 197.406 187.609ZM197.406 189.062C196.327 189.047 195.402 189.125 194.628 189.297C193.855 189.469 193.265 189.723 192.859 190.059C192.452 190.395 192.249 190.797 192.249 191.266C192.249 191.719 192.452 192.105 192.859 192.426C193.265 192.746 193.859 192.992 194.64 193.164C195.421 193.336 196.343 193.422 197.406 193.422C198.484 193.422 199.41 193.336 200.183 193.164C200.956 192.992 201.55 192.746 201.964 192.426C202.378 192.105 202.585 191.719 202.585 191.266C202.585 190.781 202.378 190.375 201.964 190.047C201.55 189.719 200.956 189.469 200.183 189.297C199.41 189.125 198.484 189.047 197.406 189.062ZM223.931 185.336H209.541V183.836H223.931V185.336ZM226.181 192.273H207.103V190.727H226.181V192.273ZM217.486 191.359H215.681V184.492H217.486V191.359ZM223.72 177.273H211.392V184.539H209.541V175.773H223.72V177.273ZM243.965 182.688H238.105V181.188H243.965V182.688ZM234.59 179.664C234.59 181.164 234.336 182.637 233.828 184.082C233.32 185.527 232.625 186.809 231.742 187.926C230.859 189.043 229.871 189.898 228.777 190.492L227.582 189.016C228.598 188.516 229.523 187.773 230.359 186.789C231.195 185.805 231.855 184.684 232.34 183.426C232.824 182.168 233.066 180.914 233.066 179.664V175.867H234.59V179.664ZM234.941 179.664C234.941 180.898 235.183 182.117 235.668 183.32C236.152 184.523 236.808 185.59 237.637 186.52C238.465 187.449 239.379 188.148 240.379 188.617L239.277 190.117C238.168 189.539 237.172 188.715 236.289 187.645C235.406 186.574 234.711 185.344 234.203 183.953C233.695 182.562 233.441 181.133 233.441 179.664V175.867H234.941V179.664ZM244.879 194.945H243.051V174.062H244.879V194.945ZM254.834 177.93C254.834 179.258 254.596 180.496 254.119 181.645C253.643 182.793 252.967 183.789 252.092 184.633C251.217 185.477 250.201 186.125 249.045 186.578L248.037 185.102C249.084 184.727 250.006 184.18 250.803 183.461C251.6 182.742 252.217 181.906 252.654 180.953C253.092 180 253.311 178.992 253.311 177.93V175.352H254.834V177.93ZM255.115 178C255.115 178.938 255.334 179.844 255.772 180.719C256.209 181.594 256.826 182.367 257.623 183.039C258.42 183.711 259.326 184.227 260.342 184.586L259.404 186.062C258.264 185.641 257.26 185.031 256.393 184.234C255.525 183.438 254.85 182.5 254.365 181.422C253.881 180.344 253.639 179.203 253.639 178V175.352H255.115V178ZM264.397 189.461H262.568V174.062H264.397V189.461ZM267.537 182.031H263.811V180.461H267.537V182.031ZM265.357 194.453H251.389V192.906H265.357V194.453ZM253.264 193.656H251.389V187.984H253.264V193.656ZM274.469 178.586C274.469 179.695 274.278 180.754 273.895 181.762C273.512 182.77 272.965 183.66 272.254 184.434C271.543 185.207 270.688 185.805 269.688 186.227L268.774 184.844C269.649 184.484 270.407 183.98 271.047 183.332C271.688 182.684 272.18 181.949 272.524 181.129C272.867 180.309 273.039 179.461 273.039 178.586V177.859H274.469V178.586ZM274.774 178.586C274.774 179.398 274.95 180.191 275.301 180.965C275.653 181.738 276.153 182.43 276.801 183.039C277.45 183.648 278.203 184.109 279.063 184.422L278.172 185.852C277.172 185.445 276.313 184.875 275.594 184.141C274.875 183.406 274.328 182.559 273.953 181.598C273.578 180.637 273.391 179.633 273.391 178.586V177.859H274.774V178.586ZM278.547 178.328H269.196V176.828H278.547V178.328ZM274.774 177.461H273.039V174.32H274.774V177.461ZM286.305 186.836H284.547V174.086H286.305V186.836ZM285.11 181.188H281.102V179.664H285.11V181.188ZM281.828 186.742H280.047V174.461H281.828V186.742ZM286.305 194.898H284.5V189.461H272.266V187.961H286.305V194.898Z" fill="white"/>
<path d="M43.0371 31.0137H28.2422V27.9668H43.0371V31.0137ZM19.3359 24.4805C19.3359 28.0156 18.6719 31.5215 17.3438 34.998C16.0352 38.4551 14.2676 41.541 12.041 44.2559C9.83398 46.9512 7.44141 49.0117 4.86328 50.4375L2.46094 47.4785C4.86328 46.248 7.12891 44.4219 9.25781 42C11.3867 39.5586 13.0859 36.7949 14.3555 33.709C15.625 30.6035 16.2598 27.5273 16.2598 24.4805V14.4902H19.3359V24.4805ZM20.0098 24.4805C20.0098 27.4688 20.6543 30.4375 21.9434 33.3867C23.252 36.3359 24.9609 38.9629 27.0703 41.2676C29.1992 43.5723 31.4648 45.3008 33.8672 46.4531L31.6406 49.5C29.0039 48.1133 26.5723 46.1211 24.3457 43.5234C22.1191 40.9258 20.332 37.9668 18.9844 34.6465C17.6562 31.3066 16.9922 27.918 16.9922 24.4805V14.4902H20.0098V24.4805ZM44.8535 61.6582H41.2207V9.86133H44.8535V61.6582ZM69.8883 19.6758C69.8883 22.918 69.273 25.9453 68.0426 28.7578C66.8316 31.5703 65.1422 34.002 62.9742 36.0527C60.8258 38.1035 58.3551 39.6953 55.5621 40.8281L53.5406 37.8105C56.0797 36.873 58.3551 35.5059 60.3668 33.709C62.3785 31.9121 63.9508 29.8027 65.0836 27.3809C66.2359 24.959 66.8121 22.3906 66.8121 19.6758V13.0254H69.8883V19.6758ZM70.3863 19.9102C70.3863 22.2539 70.9625 24.5293 72.1148 26.7363C73.2672 28.9434 74.859 30.8867 76.8902 32.5664C78.9215 34.2461 81.1676 35.5352 83.6285 36.4336L81.7828 39.4512C79.0289 38.3965 76.568 36.9023 74.4 34.9688C72.232 33.0352 70.523 30.7695 69.273 28.1719C68.023 25.5547 67.398 22.8008 67.398 19.9102V13.0254H70.3863V19.9102ZM93.7652 48.1523H90.1031V9.83203H93.7652V48.1523ZM101.793 29.1973H92.5348V26.0039H101.793V29.1973ZM96.2848 60.3398H61.8902V57.2051H96.2848V60.3398ZM65.6402 58.6406H61.8902V44.4902H65.6402V58.6406ZM158.718 24.8906H142.282V21.7559H158.718V24.8906ZM158.718 41.3555H142.282V38.25H158.718V41.3555ZM132.497 13.9922C134.997 13.9922 137.204 14.7344 139.118 16.2188C141.032 17.6836 142.526 19.7637 143.6 22.459C144.694 25.1543 145.241 28.2988 145.241 31.8926C145.241 35.4473 144.694 38.5723 143.6 41.2676C142.526 43.9629 141.032 46.043 139.118 47.5078C137.204 48.9727 134.997 49.7051 132.497 49.7051C130.016 49.7051 127.8 48.9727 125.846 47.5078C123.913 46.043 122.399 43.9629 121.305 41.2676C120.231 38.5723 119.694 35.4473 119.694 31.8926C119.694 28.2988 120.231 25.1543 121.305 22.459C122.399 19.7637 123.913 17.6836 125.846 16.2188C127.8 14.7344 130.016 13.9922 132.497 13.9922ZM132.497 17.2441C130.7 17.2441 129.089 17.8691 127.663 19.1191C126.257 20.3496 125.163 22.0684 124.382 24.2754C123.6 26.4824 123.21 29.0215 123.21 31.8926C123.21 34.7051 123.6 37.2246 124.382 39.4512C125.163 41.6582 126.257 43.377 127.663 44.6074C129.089 45.8379 130.7 46.4531 132.497 46.4531C134.294 46.4531 135.905 45.8379 137.331 44.6074C138.757 43.377 139.85 41.6582 140.612 39.4512C141.393 37.2246 141.784 34.7051 141.784 31.8926C141.784 29.0215 141.393 26.4824 140.612 24.2754C139.85 22.0684 138.757 20.3496 137.331 19.1191C135.925 17.8691 134.313 17.2441 132.497 17.2441ZM161.296 61.6582H157.663V9.86133H161.296V61.6582ZM213.723 42.6738H210.178V9.86133H213.723V42.6738ZM211.262 27.498H200.774V24.3926H211.262V27.498ZM202.356 40.7988H198.84V10.916H202.356V40.7988ZM196.555 19.4121H169.69V16.3652H196.555V19.4121ZM183.166 22.4883C185.334 22.4883 187.258 22.8496 188.938 23.5723C190.618 24.2754 191.916 25.291 192.834 26.6191C193.752 27.9473 194.211 29.5 194.211 31.2773C194.211 33.0352 193.752 34.5684 192.834 35.877C191.916 37.1855 190.618 38.2012 188.938 38.9238C187.258 39.6465 185.334 40.0078 183.166 40.0078C181.018 40.0078 179.104 39.6465 177.424 38.9238C175.764 38.2012 174.465 37.1855 173.528 35.877C172.61 34.5684 172.151 33.0352 172.151 31.2773C172.151 29.5 172.61 27.9473 173.528 26.6191C174.465 25.291 175.764 24.2754 177.424 23.5723C179.084 22.8496 180.998 22.4883 183.166 22.4883ZM183.166 25.3301C181.663 25.3301 180.325 25.5742 179.153 26.0625C178 26.5508 177.092 27.2539 176.428 28.1719C175.784 29.0703 175.461 30.1055 175.461 31.2773C175.461 32.4102 175.784 33.4258 176.428 34.3242C177.092 35.2227 178 35.916 179.153 36.4043C180.325 36.8926 181.663 37.1367 183.166 37.1367C184.67 37.1367 186.008 36.8926 187.18 36.4043C188.352 35.916 189.26 35.2227 189.905 34.3242C190.549 33.4258 190.871 32.4102 190.871 31.2773C190.871 30.1055 190.549 29.0703 189.905 28.1719C189.26 27.2539 188.352 26.5508 187.18 26.0625C186.008 25.5742 184.67 25.3301 183.166 25.3301ZM185.012 17.8594H181.35V10.2422H185.012V17.8594ZM196.789 43.6992C200.403 43.6992 203.498 44.041 206.077 44.7246C208.655 45.4082 210.618 46.4238 211.965 47.7715C213.332 49.0996 214.016 50.7207 214.016 52.6348C214.016 54.4707 213.332 56.043 211.965 57.3516C210.618 58.6602 208.645 59.6562 206.047 60.3398C203.469 61.043 200.383 61.3945 196.789 61.3945C193.215 61.3945 190.139 61.043 187.561 60.3398C185.002 59.6562 183.039 58.6602 181.672 57.3516C180.325 56.043 179.651 54.4707 179.651 52.6348C179.651 50.7207 180.325 49.0996 181.672 47.7715C183.039 46.4238 185.002 45.4082 187.561 44.7246C190.139 44.041 193.215 43.6992 196.789 43.6992ZM196.789 46.6875C194.016 46.6484 191.614 46.8633 189.582 47.332C187.551 47.8008 185.989 48.4941 184.895 49.4121C183.821 50.3105 183.284 51.3848 183.284 52.6348C183.284 53.8262 183.821 54.8613 184.895 55.7402C185.989 56.6191 187.551 57.293 189.582 57.7617C191.633 58.2305 194.036 58.4648 196.789 58.4648C199.582 58.4648 201.995 58.2305 204.026 57.7617C206.057 57.293 207.62 56.6191 208.713 55.7402C209.807 54.8613 210.354 53.8262 210.354 52.6348C210.354 51.3457 209.807 50.2617 208.713 49.3828C207.62 48.4844 206.057 47.8008 204.026 47.332C201.995 46.8633 199.582 46.6484 196.789 46.6875ZM274.076 18.2695H240.941V15.1641H274.076V18.2695ZM282.25 54.1582H235.17V50.9355H282.25V54.1582ZM276.156 20.2617C276.117 23.4258 276.068 25.9941 276.009 27.9668C275.951 29.9199 275.765 32.2637 275.453 34.998C275.16 37.7324 274.701 40.7012 274.076 43.9043L270.414 43.4355C271.078 40.3887 271.566 37.5176 271.879 34.8223C272.191 32.127 272.377 29.7441 272.435 27.6738C272.513 25.6035 272.552 23.1328 272.552 20.2617V15.1641H276.156V20.2617ZM240.179 32.3613L239.505 29.0508L273.548 27.5859V30.3691L240.179 32.3613ZM257.787 52.0781H254.183V37.2246H257.787V52.0781ZM311.152 17.7422C311.152 21.2773 310.107 24.5586 308.017 27.5859C305.927 30.6133 303.29 33.1621 300.107 35.2324C296.943 37.2832 293.71 38.7188 290.409 39.5391L288.681 36.4043C291.532 35.7988 294.452 34.5977 297.441 32.8008C300.448 31.0039 302.939 28.7773 304.911 26.1211C306.904 23.4648 307.9 20.6719 307.9 17.7422V13.6699H311.152V17.7422ZM311.737 17.7422C311.737 20.6328 312.743 23.416 314.755 26.0918C316.786 28.7676 319.316 31.0137 322.343 32.8301C325.37 34.6465 328.28 35.8379 331.073 36.4043L329.316 39.5391C326.073 38.7188 322.861 37.2832 319.677 35.2324C316.493 33.1816 313.847 30.6328 311.737 27.5859C309.628 24.5391 308.573 21.2578 308.573 17.7422V13.6699H311.737V17.7422ZM333.769 54.3047H286.425V51.1992H333.769V54.3047ZM340.932 68.6309H337.534L340.786 53.4551H345.239L340.932 68.6309ZM405.68 61.5703H401.959V9.86133H405.68V61.5703ZM414.615 33.8262H404.771V30.5742H414.615V33.8262ZM371.842 28.377H388.395V14.3438H392.057V49.002H368.18V14.3438H371.842V28.377ZM388.395 45.8379V31.3945H371.842V45.8379H388.395ZM464.494 54.9199H417.15V51.7852H464.494V54.9199ZM442.462 53.1914H438.859V40.2422H442.462V53.1914ZM458.341 28.9922H426.906V39.9785H423.244V25.916H454.709V16.9805H423.068V13.8457H458.341V28.9922ZM459.572 41.3848H423.244V38.2793H459.572V41.3848ZM514.065 33.7383H503.636V30.5449H514.065V33.7383ZM496.546 25.8574C496.546 29.2168 496.038 32.5176 495.022 35.7598C494.007 39.002 492.581 41.9316 490.745 44.5488C488.929 47.1465 486.8 49.1875 484.358 50.6719L482.102 47.8594C484.368 46.5312 486.37 44.6953 488.108 42.3516C489.846 40.0078 491.204 37.4004 492.18 34.5293C493.157 31.6387 493.645 28.748 493.645 25.8574V22.6641H496.546V25.8574ZM497.132 25.8574C497.132 28.6309 497.62 31.3945 498.596 34.1484C499.593 36.8828 500.97 39.3633 502.727 41.5898C504.485 43.7969 506.497 45.5156 508.763 46.7461L506.565 49.5586C504.163 48.1914 502.014 46.2773 500.12 43.8164C498.245 41.3359 496.8 38.5332 495.784 35.4082C494.768 32.2832 494.261 29.0996 494.261 25.8574V22.6641H497.132V25.8574ZM507.356 22.8398H483.333V19.7344H507.356V22.8398ZM497.19 21.9902H493.645V11.7949H497.19V21.9902ZM526.37 61.5703H522.796V9.86133H526.37V61.5703ZM515.94 58.7578H512.425V11.2383H515.94V58.7578ZM572.498 18.5332H539.364V15.3984H572.498V18.5332ZM580.672 53.9238H533.592V50.7598H580.672V53.9238ZM574.491 21.9023C574.491 25.2422 574.461 28.0449 574.403 30.3105C574.344 32.5566 574.159 35.0566 573.846 37.8105C573.553 40.5645 573.065 43.5527 572.381 46.7754L568.661 46.4238C569.344 43.416 569.842 40.5449 570.155 37.8105C570.487 35.0566 570.692 32.5762 570.77 30.3691C570.868 28.1621 570.916 25.3398 570.916 21.9023V15.3984H574.491V21.9023ZM538.602 34.3828L538.016 31.2773L571.971 29.7832V32.5371L538.602 34.3828ZM591.996 44.8711H588.07L587.777 14.5781H592.289L591.996 44.8711ZM590.033 57.3223C589.486 57.3223 588.969 57.1758 588.48 56.8828C587.992 56.5898 587.611 56.209 587.338 55.7402C587.064 55.252 586.928 54.7246 586.928 54.1582C586.928 53.6113 587.064 53.0938 587.338 52.6055C587.611 52.1172 587.992 51.7363 588.48 51.4629C588.969 51.1895 589.486 51.0527 590.033 51.0527C590.6 51.0527 591.117 51.1895 591.586 51.4629C592.074 51.7363 592.455 52.1172 592.729 52.6055C593.002 53.0938 593.139 53.6113 593.139 54.1582C593.139 54.7246 593.002 55.252 592.729 55.7402C592.455 56.209 592.074 56.5898 591.586 56.8828C591.117 57.1758 590.6 57.3223 590.033 57.3223ZM32.6156 104.82C32.4298 103.286 31.8955 101.962 31.0127 100.847C30.13 99.7321 28.9336 98.8958 27.4236 98.3383C25.9369 97.7807 24.2178 97.502 22.2664 97.502C20.2454 97.502 18.4682 97.8156 16.935 98.4428C15.4018 99.07 14.2171 99.9528 13.3808 101.091C12.5445 102.206 12.1263 103.484 12.1263 104.924C12.1263 107.038 12.9975 108.664 14.7398 109.803C16.482 110.941 18.6773 111.847 21.3256 112.52L26.1692 113.81C30.3739 114.832 33.8468 116.435 36.588 118.618C39.3525 120.802 40.7347 123.95 40.7347 128.062C40.7347 130.896 39.9913 133.44 38.5046 135.693C37.041 137.923 34.8922 139.677 32.0581 140.955C29.2472 142.209 25.902 142.836 22.0225 142.836C18.2824 142.836 15.0185 142.244 12.2309 141.059C9.4432 139.851 7.27115 138.144 5.7147 135.937C4.15826 133.707 3.29873 131.07 3.13612 128.027H10.8022C10.9648 129.769 11.5572 131.244 12.5793 132.452C13.6015 133.66 14.9256 134.566 16.5517 135.17C18.1779 135.774 19.9898 136.076 21.9877 136.076C24.1249 136.076 26.0414 135.739 27.7372 135.066C29.433 134.392 30.7572 133.44 31.7096 132.208C32.6621 130.954 33.1383 129.525 33.1383 127.922C33.1383 126.528 32.7434 125.355 31.9536 124.403C31.1637 123.45 30.0835 122.672 28.7129 122.068C27.3655 121.441 25.6697 120.849 23.6254 120.291L17.632 118.723C13.404 117.562 10.1633 115.901 7.90999 113.74C5.65663 111.556 4.52995 108.757 4.52995 105.342C4.52995 102.485 5.30817 99.9644 6.86461 97.7807C8.44429 95.5971 10.5815 93.9012 13.2762 92.6933C15.9942 91.462 19.049 90.8464 22.4407 90.8464C25.8091 90.8464 28.8058 91.4504 31.4309 92.6584C34.0791 93.8432 36.1583 95.4925 37.6683 97.6065C39.1782 99.7205 39.9681 102.125 40.0378 104.82H32.6156ZM48.3492 91.5433H80.024V98.1292H56.0152V113.461H78.3514V120.012H56.0152V135.414H80.2679V142H48.3492V91.5433ZM132.415 116.772C132.415 122.022 131.44 126.61 129.488 130.536C127.537 134.462 124.842 137.47 121.404 139.561C117.989 141.652 114.086 142.697 109.696 142.697C105.305 142.697 101.391 141.652 97.9528 139.561C94.5379 137.47 91.8548 134.462 89.9034 130.536C87.9521 126.61 86.9764 122.022 86.9764 116.772C86.9764 111.475 87.9521 106.875 89.9034 102.973C91.8548 99.07 94.5379 96.0733 97.9528 93.9826C101.391 91.8918 105.305 90.8464 109.696 90.8464C114.086 90.8464 117.989 91.8918 121.404 93.9826C124.842 96.0733 127.537 99.07 129.488 102.973C131.44 106.875 132.415 111.475 132.415 116.772ZM124.854 116.772C124.854 112.776 124.203 109.361 122.902 106.527C121.601 103.67 119.813 101.509 117.536 100.046C115.26 98.5822 112.646 97.8504 109.696 97.8504C106.769 97.8504 104.155 98.5822 101.856 100.046C99.5789 101.509 97.7902 103.67 96.4893 106.527C95.1884 109.361 94.5379 112.776 94.5379 116.772C94.5379 120.767 95.1884 124.194 96.4893 127.051C97.7902 129.885 99.5789 132.034 101.856 133.498C104.155 134.961 106.769 135.693 109.696 135.693C112.646 135.693 115.26 134.961 117.536 133.498C119.813 132.034 121.601 129.885 122.902 127.051C124.203 124.194 124.854 120.767 124.854 116.772ZM167.837 104.82C167.651 103.286 167.117 101.962 166.234 100.847C165.351 99.7321 164.155 98.8958 162.645 98.3383C161.158 97.7807 159.439 97.502 157.487 97.502C155.466 97.502 153.689 97.8156 152.156 98.4428C150.623 99.07 149.438 99.9528 148.602 101.091C147.766 102.206 147.347 103.484 147.347 104.924C147.347 107.038 148.219 108.664 149.961 109.803C151.703 110.941 153.898 111.847 156.547 112.52L161.39 113.81C165.595 114.832 169.068 116.435 171.809 118.618C174.574 120.802 175.956 123.95 175.956 128.062C175.956 130.896 175.212 133.44 173.726 135.693C172.262 137.923 170.113 139.677 167.279 140.955C164.468 142.209 161.123 142.836 157.244 142.836C153.503 142.836 150.24 142.244 147.452 141.059C144.664 139.851 142.492 138.144 140.936 135.937C139.379 133.707 138.52 131.07 138.357 128.027H146.023C146.186 129.769 146.778 131.244 147.8 132.452C148.822 133.66 150.147 134.566 151.773 135.17C153.399 135.774 155.211 136.076 157.209 136.076C159.346 136.076 161.262 135.739 162.958 135.066C164.654 134.392 165.978 133.44 166.931 132.208C167.883 130.954 168.359 129.525 168.359 127.922C168.359 126.528 167.964 125.355 167.175 124.403C166.385 123.45 165.305 122.672 163.934 122.068C162.587 121.441 160.891 120.849 158.846 120.291L152.853 118.723C148.625 117.562 145.384 115.901 143.131 113.74C140.878 111.556 139.751 108.757 139.751 105.342C139.751 102.485 140.529 99.9644 142.086 97.7807C143.665 95.5971 145.803 93.9012 148.497 92.6933C151.215 91.462 154.27 90.8464 157.662 90.8464C161.03 90.8464 164.027 91.4504 166.652 92.6584C169.3 93.8432 171.379 95.4925 172.889 97.6065C174.399 99.7205 175.189 102.125 175.259 104.82H167.837ZM291.142 142H284.103L258.526 105.098H258.073V142H250.407V91.5433H257.516L283.058 128.48H283.511V91.5433H291.142V142ZM334.891 107.991C334.496 105.853 333.672 104.03 332.417 102.52C331.186 100.987 329.641 99.825 327.783 99.0352C325.948 98.2453 323.961 97.8504 321.824 97.8504C318.92 97.8504 316.319 98.5938 314.019 100.081C311.719 101.544 309.907 103.705 308.583 106.562C307.282 109.396 306.631 112.799 306.631 116.772C306.631 120.791 307.282 124.217 308.583 127.051C309.907 129.885 311.719 132.034 314.019 133.498C316.319 134.961 318.909 135.693 321.789 135.693C323.927 135.693 325.901 135.298 327.713 134.508C329.525 133.718 331.07 132.58 332.348 131.093C333.625 129.583 334.473 127.795 334.891 125.727L342.592 125.762C342.058 129.037 340.838 131.964 338.934 134.543C337.052 137.122 334.636 139.131 331.686 140.571C328.735 141.988 325.425 142.697 321.755 142.697C317.364 142.697 313.45 141.652 310.012 139.561C306.597 137.47 303.914 134.462 301.962 130.536C300.034 126.61 299.07 122.022 299.07 116.772C299.07 111.475 300.046 106.875 301.997 102.973C303.948 99.07 306.631 96.0733 310.046 93.9826C313.484 91.8918 317.387 90.8464 321.755 90.8464C325.309 90.8464 328.561 91.5317 331.511 92.9023C334.485 94.2497 336.936 96.2127 338.864 98.7913C340.792 101.37 342.035 104.436 342.592 107.991H334.891ZM350.172 91.5433H357.838V113.461H382.927V91.5433H390.628V142H382.927V120.012H357.838V142H350.172V91.5433ZM400.194 91.5433H431.869V98.1292H407.86V113.461H430.196V120.012H407.86V135.414H432.112V142H400.194V91.5433ZM474.642 107.991C474.247 105.853 473.423 104.03 472.168 102.52C470.937 100.987 469.392 99.825 467.534 99.0352C465.699 98.2453 463.712 97.8504 461.575 97.8504C458.671 97.8504 456.07 98.5938 453.77 100.081C451.47 101.544 449.658 103.705 448.334 106.562C447.033 109.396 446.382 112.799 446.382 116.772C446.382 120.791 447.033 124.217 448.334 127.051C449.658 129.885 451.47 132.034 453.77 133.498C456.07 134.961 458.66 135.693 461.54 135.693C463.678 135.693 465.652 135.298 467.464 134.508C469.276 133.718 470.821 132.58 472.099 131.093C473.376 129.583 474.224 127.795 474.642 125.727L482.343 125.762C481.809 129.037 480.589 131.964 478.684 134.543C476.803 137.122 474.387 139.131 471.437 140.571C468.486 141.988 465.176 142.697 461.506 142.697C457.115 142.697 453.201 141.652 449.763 139.561C446.348 137.47 443.664 134.462 441.713 130.536C439.785 126.61 438.821 122.022 438.821 116.772C438.821 111.475 439.797 106.875 441.748 102.973C443.699 99.07 446.382 96.0733 449.797 93.9826C453.235 91.8918 457.138 90.8464 461.506 90.8464C465.06 90.8464 468.312 91.5317 471.262 92.9023C474.236 94.2497 476.687 96.2127 478.615 98.7913C480.543 101.37 481.786 104.436 482.343 107.991H474.642ZM489.923 91.5433H497.589V115.622H498.216L519.298 91.5433H528.985L508.6 114.263L529.055 142H519.751L503.513 119.49L497.589 126.354V142H489.923V91.5433Z" fill="white"/>
<path d="M206.337 92.9045C206.476 92.7431 206.602 92.5818 206.755 92.4366C206.616 92.5818 206.476 92.7431 206.337 92.9045Z" fill="white"/>
<path d="M213.843 90.1775C213.983 90.2098 214.108 90.242 214.234 90.2743C214.108 90.242 213.969 90.2098 213.843 90.1775Z" fill="white"/>
<path d="M207.997 91.3716C207.997 91.3716 208.025 91.3555 208.039 91.3394C208.039 91.3394 208.011 91.3555 207.997 91.3716Z" fill="white"/>
<path d="M215.378 90.6939C215.49 90.7423 215.615 90.8068 215.727 90.8552C215.615 90.7907 215.49 90.7423 215.378 90.6939Z" fill="white"/>
<path d="M216.271 91.1941C216.271 91.1941 216.369 91.2587 216.424 91.2909C216.369 91.2587 216.327 91.2264 216.271 91.1941Z" fill="white"/>
<path d="M205.667 93.8082C205.667 93.8082 205.639 93.8566 205.625 93.8727L184.571 127.226C181.907 131.454 182.716 137.424 186.357 140.507C189.999 143.589 195.175 142.653 197.84 138.441L212.267 115.592L205.625 105.087C203.463 101.65 203.588 97.0677 205.667 93.8243V93.8082Z" fill="url(#paint0_linear_308_819)"/>
<path d="M207.425 91.8073C207.425 91.8073 207.397 91.8396 207.383 91.8396C207.579 91.6621 207.788 91.5168 207.997 91.3555C207.802 91.5007 207.607 91.6298 207.425 91.7911V91.8073Z" fill="white"/>
<path d="M206.184 93.0982C206.184 93.0982 206.295 92.9691 206.337 92.9045C206.281 92.9691 206.225 93.0336 206.184 93.0982Z" fill="white"/>
<path d="M214.234 90.2582C214.346 90.2905 214.457 90.3389 214.583 90.3711C214.471 90.3389 214.36 90.2905 214.234 90.2582Z" fill="white"/>
<path d="M206.755 92.4366C206.867 92.3236 206.979 92.2107 207.104 92.1139C206.993 92.2268 206.867 92.3236 206.755 92.4366Z" fill="white"/>
<path d="M239.962 127.226L218.908 93.8727C218.224 92.7916 217.373 91.9202 216.424 91.2909C216.662 91.4523 216.885 91.6298 217.108 91.8073C220.764 94.8893 221.559 100.86 218.894 105.087L212.267 115.592L226.693 138.425C229.358 142.653 234.521 143.572 238.176 140.49C241.832 137.408 242.627 131.438 239.962 127.21V127.226Z" fill="white"/>
<path d="M212.616 90C212.783 90 212.965 90.0323 213.132 90.0484C212.965 90.0323 212.797 90 212.616 90Z" fill="white"/>
<path d="M205.667 93.8082C205.667 93.8082 205.695 93.7759 205.709 93.7436C205.709 93.7598 205.681 93.7759 205.667 93.8082Z" fill="white"/>
<path d="M208.039 91.3393C209.183 90.5486 210.467 90.0968 211.764 90.0161C210.481 90.0968 209.197 90.5325 208.039 91.3393Z" fill="white"/>
<path d="M217.108 91.8073C216.885 91.6136 216.662 91.4523 216.425 91.2909C216.369 91.2586 216.327 91.2264 216.271 91.1941C216.09 91.0811 215.908 90.9682 215.727 90.8714C215.615 90.8068 215.49 90.7584 215.378 90.71C215.253 90.6455 215.127 90.5809 215.001 90.5325C214.862 90.4841 214.722 90.4357 214.583 90.3873C214.471 90.355 214.36 90.3066 214.234 90.2743C214.108 90.2421 213.969 90.2098 213.843 90.1775C213.704 90.1452 213.578 90.113 213.439 90.0968C213.341 90.0807 213.229 90.0646 213.132 90.0646C212.964 90.0484 212.797 90.0161 212.616 90.0161C212.56 90.0161 212.504 90.0161 212.434 90.0161C212.211 90.0161 212.002 90.0161 211.778 90.0161C211.778 90.0161 211.764 90.0161 211.751 90.0161C210.439 90.113 209.155 90.5648 208.025 91.3393C208.025 91.3393 207.997 91.3555 207.983 91.3716C207.774 91.5168 207.565 91.6782 207.37 91.8557C207.272 91.9364 207.188 92.0332 207.09 92.1139C206.979 92.2268 206.853 92.3236 206.742 92.4366C206.602 92.5818 206.463 92.7432 206.323 92.9045C206.267 92.9691 206.211 93.0175 206.17 93.0982C206.002 93.3079 205.849 93.5338 205.695 93.7598C205.695 93.7759 205.667 93.792 205.653 93.8243C203.574 97.0838 203.449 101.667 205.612 105.087L212.253 115.592L218.88 105.087C221.545 100.86 220.736 94.8893 217.094 91.8073H217.108Z" fill="white"/>
<defs>
<linearGradient id="paint0_linear_308_819" x1="216.871" y1="94.147" x2="195.631" y2="117.235" gradientUnits="userSpaceOnUse">
<stop stop-color="#A2DAD5"/>
<stop offset="0.5" stop-color="#D5EEF0"/>
<stop offset="1" stop-color="white"/>
</linearGradient>
</defs>
</svg>
