<svg xmlns="http://www.w3.org/2000/svg" fill="none" viewBox="0 0 73 39"><g clip-path="url(#a)"><path fill="url(#b)" d="M.94 31.27a4.9 4.9 0 0 0 1.01 6.8 4.8 4.8 0 0 0 6.74-1.03l11.9-16.22a4.9 4.9 0 0 0-1.01-6.8 4.8 4.8 0 0 0-6.75 1.03z"/><path fill="#282828" d="M24.9 31.26a4.9 4.9 0 0 0 1 6.8 4.8 4.8 0 0 0 6.74-1.03l21.48-29.3a4.9 4.9 0 0 0-1-6.8 4.8 4.8 0 0 0-6.75 1.04z"/><path fill="#282828" d="M20.62 15a4.76 4.76 0 0 0-6.69-1 4.84 4.84 0 0 0-1 6.74l11.94 16.29a4.76 4.76 0 0 0 6.69 1.01 4.84 4.84 0 0 0 1-6.74z"/><path fill="url(#c)" d="M40.47 31.28a4.9 4.9 0 0 0 1 6.8 4.8 4.8 0 0 0 6.75-1.03L60.1 20.83a4.9 4.9 0 0 0-1-6.8 4.8 4.8 0 0 0-6.75 1.03z"/><path fill="#282828" d="M60.15 15.01a4.76 4.76 0 0 0-6.7-1.01 4.84 4.84 0 0 0-1 6.74L64.4 37.03a4.76 4.76 0 0 0 6.68 1.01 4.84 4.84 0 0 0 1.01-6.74z"/></g><defs><linearGradient id="b" x1="1.86" x2="15.09" y1="37.68" y2="20.65" gradientUnits="userSpaceOnUse"><stop stop-color="#282828"/><stop offset="1" stop-color="#231f20"/></linearGradient><linearGradient id="c" x1="41.37" x2="54.49" y1=".01" y2=".01" gradientUnits="userSpaceOnUse"><stop stop-color="#282828"/><stop offset="1" stop-color="#231f20"/></linearGradient><clipPath id="a"><path fill="#fff" d="M0 0h73v39H0z"/></clipPath></defs></svg>