<svg width="52" height="43" viewBox="0 0 52 43" fill="none" xmlns="http://www.w3.org/2000/svg">
<g clip-path="url(#clip0_499_766)">
<path d="M4.49878 5.90985L0.365372 11.3033C-0.105625 11.9099 -0.138108 12.7705 0.349131 13.3607C1.08811 14.2541 2.45238 14.1803 3.10203 13.3279L5.4083 10.3279C5.78185 9.84428 5.78185 9.18034 5.4083 8.69674L4.62059 7.67215C4.21456 7.14756 4.1902 6.45903 4.49878 5.91805V5.90985Z" fill="#F8F7F5"/>
<path d="M19.7089 5.90985L15.5755 11.3033C15.1045 11.9099 15.072 12.7705 15.5592 13.3607C16.2982 14.2541 17.6625 14.1803 18.3121 13.3279L20.6184 10.3279C20.9919 9.84428 20.9919 9.18034 20.6184 8.69674L19.8307 7.67215C19.4246 7.14756 19.4003 6.45903 19.7089 5.91805V5.90985Z" fill="#F8F7F5"/>
<path d="M20.2692 2.77869L12.5708 13.2951C12.2216 13.7705 11.6694 14.0164 11.1253 14C10.5894 14.0082 10.0534 13.7623 9.71233 13.2951L6.84574 9.37705L5.43275 7.45082C5.02672 6.89344 5.01047 6.17213 5.31094 5.60656C5.42463 5.38525 5.58704 5.18852 5.79818 5.03279C6.5534 4.46721 7.62532 4.63115 8.18565 5.39344L11.1253 9.40164L17.4919 0.704918C17.8249 0.245902 18.3527 0 18.8805 0C19.2379 0 19.5952 0.106557 19.9037 0.336066C20.6671 0.909836 20.8376 2.0082 20.2692 2.77869Z" fill="#F8F7F5"/>
<path d="M27.3097 13.6639C26.5545 14.2213 25.4744 14.0656 24.9141 13.2951L22.0475 9.37705L20.6345 7.45082C20.2285 6.89345 20.2123 6.17213 20.5127 5.60656C20.6264 5.38525 20.7888 5.18853 20.9918 5.03279C21.7552 4.46722 22.8271 4.63115 23.3874 5.39345L27.667 11.2459C28.2273 12.0082 28.0649 13.0984 27.3097 13.6639Z" fill="#F8F7F5"/>
</g>
<path d="M4.63867 23.707C4.56055 23.0137 3.92578 22.6133 3.07617 22.6133C2.13867 22.6133 1.52344 23.1016 1.52344 23.7754C1.52344 24.5176 2.35352 24.791 2.89062 24.9277L3.59375 25.123C4.35547 25.3184 5.5957 25.7578 5.5957 27.0762C5.5957 28.2285 4.66797 29.127 3.02734 29.127C1.50391 29.127 0.556641 28.3359 0.478516 27.1641H1.37695C1.45508 27.9551 2.1875 28.3262 3.02734 28.3262C4.00391 28.3262 4.73633 27.8281 4.73633 27.0566C4.73633 26.373 4.08203 26.1094 3.33984 25.8945L2.4707 25.6602C1.35742 25.3379 0.673828 24.7715 0.673828 23.8145C0.673828 22.623 1.73828 21.832 3.10547 21.832C4.47266 21.832 5.45898 22.6328 5.49805 23.707H4.63867ZM9.35547 29V21.9297H13.6426V22.7109H10.2344V25.0742H13.418V25.8457H10.2344V28.2188H13.6914V29H9.35547ZM23.5059 25.4648C23.5059 27.7012 22.1875 29.0977 20.3809 29.0977C18.5645 29.0977 17.2559 27.7012 17.2559 25.4648C17.2559 23.2285 18.5645 21.832 20.3809 21.832C22.1875 21.832 23.5059 23.2285 23.5059 25.4648ZM22.6562 25.4648C22.6562 23.6387 21.6602 22.6523 20.3809 22.6523C19.1016 22.6523 18.1055 23.6387 18.1055 25.4648C18.1055 27.291 19.1016 28.2773 20.3809 28.2773C21.6602 28.2773 22.6562 27.291 22.6562 25.4648ZM31.1523 23.707C31.0742 23.0137 30.4395 22.6133 29.5898 22.6133C28.6523 22.6133 28.0371 23.1016 28.0371 23.7754C28.0371 24.5176 28.8672 24.791 29.4043 24.9277L30.1074 25.123C30.8691 25.3184 32.1094 25.7578 32.1094 27.0762C32.1094 28.2285 31.1816 29.127 29.541 29.127C28.0176 29.127 27.0703 28.3359 26.9922 27.1641H27.8906C27.9688 27.9551 28.7012 28.3262 29.541 28.3262C30.5176 28.3262 31.25 27.8281 31.25 27.0566C31.25 26.373 30.5957 26.1094 29.8535 25.8945L28.9844 25.6602C27.8711 25.3379 27.1875 24.7715 27.1875 23.8145C27.1875 22.623 28.252 21.832 29.6191 21.832C30.9863 21.832 31.9727 22.6328 32.0117 23.707H31.1523ZM36.1719 29H35.2539L37.8418 21.9297H38.7695L41.3574 29H40.4297L39.7266 27.0078H36.8848L36.1719 29ZM37.1484 26.2363H39.4531L38.3301 23.0723H38.2715L37.1484 26.2363ZM50.4297 21.9297V29H49.5898L45.7617 23.4922H45.6934V29H44.8145V21.9297H45.6641L49.4922 27.4473H49.5605V21.9297H50.4297ZM5.60547 36.1562C5.40039 35.1797 4.56055 34.6523 3.63281 34.6523C2.35352 34.6523 1.35742 35.6387 1.35742 37.4648C1.35742 39.291 2.35352 40.2773 3.63281 40.2773C4.56055 40.2773 5.39062 39.75 5.60547 38.7832H6.48438C6.23047 40.2285 5.06836 41.0977 3.63281 41.0977C1.81641 41.0977 0.507812 39.7012 0.507812 37.4648C0.507812 35.2285 1.81641 33.832 3.63281 33.832C5.05859 33.832 6.2207 34.6914 6.48438 36.1562H5.60547ZM10.2148 41V33.9297H11.0938V37.0742H14.834V33.9297H15.7227V41H14.834V37.8457H11.0938V41H10.2148ZM19.7754 41V33.9297H24.0625V34.7109H20.6543V37.0742H23.8379V37.8457H20.6543V40.2188H24.1113V41H19.7754ZM32.7734 36.1562C32.5684 35.1797 31.7285 34.6523 30.8008 34.6523C29.5215 34.6523 28.5254 35.6387 28.5254 37.4648C28.5254 39.291 29.5215 40.2773 30.8008 40.2773C31.7285 40.2773 32.5586 39.75 32.7734 38.7832H33.6523C33.3984 40.2285 32.2363 41.0977 30.8008 41.0977C28.9844 41.0977 27.6758 39.7012 27.6758 37.4648C27.6758 35.2285 28.9844 33.832 30.8008 33.832C32.2266 33.832 33.3887 34.6914 33.6523 36.1562H32.7734ZM37.3828 41V33.9297H38.2617V37.4258H38.3496L41.4941 33.9297H42.6465L39.6875 37.123L42.6465 41H41.5723L39.1406 37.7285L38.2617 38.7246V41H37.3828Z" fill="#F8F7F5"/>
<defs>
<clipPath id="clip0_499_766">
<rect width="28" height="14" fill="white"/>
</clipPath>
</defs>
</svg>
