<svg xmlns="http://www.w3.org/2000/svg" fill="none" viewBox="0 0 228 65"><g clip-path="url(#a)"><path fill="#fff" d="M91.33 12.5a7.83 7.83 0 0 0-1.73-11 8 8 0 0 0-11.1 1.72L42.22 52.5a7.83 7.83 0 0 0 1.73 11 8 8 0 0 0 11.1-1.72zM91 24.08l.4-.4zm7.25-2.26.38.08zm-5.65.98.05-.02zm7.13-.55.34.13q-.16-.08-.34-.13m.87.41.14.08z"/><path fill="url(#b)" d="m90.35 24.82-.04.06-20.33 27.61a7.85 7.85 0 0 0 1.72 11 8 8 0 0 0 11.1-1.71l13.93-18.92-6.42-8.7a7.8 7.8 0 0 1 .04-9.32z"/><path fill="#fff" d="m92.05 23.17-.04.02.6-.4q-.3.17-.56.36zm-1.2 1.07.15-.16zm7.78-2.36.34.1zm-7.23 1.81q.16-.15.34-.27zm32.07 28.81-20.34-27.62a8 8 0 0 0-1.74-1.71 7.84 7.84 0 0 1 1.73 11l-6.4 8.7 13.93 18.9a8 8 0 0 0 11.1 1.7 7.84 7.84 0 0 0 1.72-10.99zm-26.4-30.83.5.04zm-6.72 3.15.04-.05zm2.3-2.04"/><path fill="#fff" d="M101.4 23.17q-.31-.24-.66-.43l-.14-.08q-.26-.15-.53-.27-.16-.08-.34-.13l-.36-.15-.4-.12-.34-.1-.38-.07q-.2-.05-.39-.07l-.3-.03c-.16 0-.32-.04-.5-.04h-.83c-1.27.08-2.5.46-3.6 1.1l-.04.03q-.3.18-.6.4l-.26.21q-.16.14-.34.27l-.4.39q-.09.07-.15.16-.24.26-.46.54l-.04.06c-2 2.7-2.13 6.5-.04 9.32l6.41 8.7 6.4-8.7a7.86 7.86 0 0 0-1.72-11zm-78.86.91.4-.4zm7.26-2.26.37.08zm-5.65.98.04-.02zm7.13-.55.33.13zm.86.41.15.08z"/><path fill="url(#c)" d="m21.9 24.82-.04.06L1.52 52.49a7.85 7.85 0 0 0 1.73 11 8 8 0 0 0 11.09-1.71l13.93-18.92-6.41-8.7a7.8 7.8 0 0 1 .04-9.32z"/><path fill="#fff" d="m23.6 23.17-.04.02.59-.4q-.29.17-.55.36zm-1.2 1.07.14-.16zm7.77-2.36.34.1zm-7.22 1.81q.15-.15.34-.27zM55.02 52.5 34.7 24.87a8 8 0 0 0-2.4-2.14q.34.2.66.43a7.84 7.84 0 0 1 1.72 11l-6.4 8.7 13.94 18.9a8 8 0 0 0 11.09 1.7 7.84 7.84 0 0 0 1.72-10.99zM28.6 21.67q.27.01.5.04-.23-.03-.5-.04m-6.7 3.15.04-.05zm2.29-2.04"/><path fill="#fff" d="M32.95 23.17q-.32-.24-.66-.43l-.15-.08q-.27-.15-.53-.27l-.33-.13-.37-.15-.4-.12-.34-.1-.38-.07q-.19-.05-.39-.07l-.3-.03c-.15 0-.32-.04-.5-.04h-.83c-1.26.08-2.5.46-3.6 1.1l-.04.03q-.3.18-.59.4l-.27.21-.33.27q-.2.18-.4.39-.1.07-.16.16l-.46.54q0 .02-.04.06c-2 2.7-2.12 6.5-.04 9.32l6.42 8.7 6.4-8.7a7.85 7.85 0 0 0-1.73-11z"/></g><path fill="#fff" d="M144.15 17.3c-.16-1.6-1.57-2.53-3.55-2.53-2.12 0-3.45 1.08-3.45 2.55 0 1.65 1.78 2.27 3.14 2.6l1.67.45c2.22.53 4.96 1.74 4.98 4.86-.02 2.91-2.34 5.06-6.41 5.06-3.86 0-6.3-1.93-6.46-5.08h2.62c.17 1.88 1.81 2.79 3.84 2.79 2.2 0 3.79-1.12 3.81-2.81-.02-1.5-1.43-2.12-3.26-2.6l-2.05-.55c-2.77-.76-4.5-2.17-4.5-4.57 0-2.98 2.66-4.96 6.14-4.96 3.5 0 5.96 2 6.03 4.79zm5.36 12.7V12.75h10.82V15h-8.2v5.22h7.62v2.24h-7.62v5.27h8.3V30zm28.78-8.63c0 5.5-3.31 8.87-7.77 8.87-4.5 0-7.8-3.36-7.8-8.87s3.3-8.86 7.8-8.86c4.45 0 7.77 3.34 7.77 8.86m-2.6 0c0-4.19-2.22-6.45-5.17-6.45-2.98 0-5.2 2.26-5.2 6.45s2.22 6.46 5.2 6.46c2.95 0 5.17-2.26 5.17-6.46m14.7-4.07c-.17-1.6-1.58-2.53-3.55-2.53-2.12 0-3.46 1.08-3.46 2.55 0 1.65 1.79 2.27 3.15 2.6l1.66.45c2.22.53 4.96 1.74 4.98 4.86-.02 2.91-2.33 5.06-6.4 5.06-3.87 0-6.3-1.93-6.46-5.08h2.62c.16 1.88 1.8 2.79 3.83 2.79 2.2 0 3.8-1.12 3.82-2.81-.03-1.5-1.43-2.12-3.27-2.6l-2.05-.55c-2.76-.76-4.5-2.17-4.5-4.57 0-2.98 2.67-4.96 6.15-4.96 3.5 0 5.96 2 6.03 4.79zm6.69 12.7h-2.8l6.2-17.25h3.03L209.73 30h-2.79l-1.57-4.55h-6.72zm2.33-6.74h5.2l-2.55-7.37h-.12zm26.18-10.51V30h-2.4l-8.75-12.6h-.14V30h-2.62V12.75h2.43l8.74 12.63h.17V12.75zm-79.15 34.62c-.43-2.21-2.26-3.45-4.46-3.45-2.97 0-5.2 2.28-5.2 6.45 0 4.2 2.25 6.46 5.2 6.46 2.17 0 4-1.21 4.46-3.4l2.64.02c-.54 3.4-3.33 5.79-7.12 5.79-4.5 0-7.77-3.36-7.77-8.87s3.29-8.86 7.77-8.86c3.64 0 6.53 2.14 7.12 5.86zM151.68 59V41.75h2.62v7.48h8.58v-7.48h2.62V59h-2.62v-7.53h-8.58V59zm17.1 0V41.75h10.82V44h-8.2v5.22h7.63v2.24h-7.63v5.27h8.3V59zm25.47-11.63c-.43-2.21-2.27-3.45-4.46-3.45-2.98 0-5.2 2.28-5.2 6.45 0 4.2 2.25 6.46 5.2 6.46 2.17 0 4-1.21 4.46-3.4l2.64.02c-.55 3.4-3.33 5.79-7.12 5.79-4.5 0-7.77-3.36-7.77-8.87s3.29-8.86 7.77-8.86c3.64 0 6.53 2.14 7.12 5.86zM199.48 59V41.75h2.62v8.22h.22l7.22-8.22h3.29l-6.96 7.77 6.98 9.48h-3.17l-5.55-7.7-2.03 2.34V59z"/><defs><linearGradient id="b" x1="101.17" x2="84.01" y1="25.1" y2="46.87" gradientUnits="userSpaceOnUse"><stop stop-color="#a2dad5"/><stop offset=".5" stop-color="#d5eef0"/><stop offset="1" stop-color="#fff"/></linearGradient><linearGradient id="c" x1="32.38" x2="15.22" y1="25.53" y2="47.28" gradientUnits="userSpaceOnUse"><stop stop-color="#a2dad5"/><stop offset=".5" stop-color="#d5eef0"/><stop offset="1" stop-color="#fff"/></linearGradient><clipPath id="a"><path fill="#fff" d="M0 0h125v65H0z"/></clipPath></defs></svg>