<svg width="18" height="26" viewBox="0 0 18 26" fill="none" xmlns="http://www.w3.org/2000/svg">
<path d="M3.6665 6.49999C3.6665 7.91448 4.22841 9.27103 5.2286 10.2712C6.22879 11.2714 7.58535 11.8333 8.99984 11.8333C10.4143 11.8333 11.7709 11.2714 12.7711 10.2712C13.7713 9.27103 14.3332 7.91448 14.3332 6.49999C14.3332 5.0855 13.7713 3.72895 12.7711 2.72875C11.7709 1.72856 10.4143 1.16666 8.99984 1.16666C7.58535 1.16666 6.22879 1.72856 5.2286 2.72875C4.22841 3.72895 3.6665 5.0855 3.6665 6.49999Z" stroke="black" stroke-width="1.33333" stroke-linecap="round" stroke-linejoin="round"/>
<path d="M1 24.8333V22.1667C1 20.7522 1.5619 19.3956 2.5621 18.3954C3.56229 17.3952 4.91885 16.8333 6.33333 16.8333H11.6667C13.0812 16.8333 14.4377 17.3952 15.4379 18.3954C16.4381 19.3956 17 20.7522 17 22.1667V24.8333" stroke="black" stroke-width="1.33333" stroke-linecap="round" stroke-linejoin="round"/>
</svg>
