<svg width="31" height="31" viewBox="0 0 31 31" fill="none" xmlns="http://www.w3.org/2000/svg">
<path opacity="0.7" d="M7.74675 21.6988C6.62559 21.6982 5.51792 21.4544 4.50014 20.9841C3.48237 20.5139 2.57872 19.8285 1.85153 18.9752C1.12435 18.1218 0.590939 17.1209 0.288107 16.0414C-0.0147252 14.962 -0.0797727 13.8297 0.097452 12.7226C0.274677 11.6156 0.689955 10.5602 1.31464 9.62917C1.93932 8.69818 2.75853 7.91379 3.71577 7.33011C4.673 6.74643 5.74546 6.37736 6.85917 6.24835C7.97288 6.11934 9.10131 6.23347 10.1666 6.58286C11.1504 4.28489 12.8971 2.39687 15.1117 1.2377C17.3264 0.07852 19.8733 -0.280765 22.3222 0.220528C24.7711 0.721821 26.972 2.05297 28.553 3.98913C30.1341 5.92528 30.9984 8.34778 31 10.8474C31 13.7254 29.8567 16.4855 27.8217 18.5205C25.7866 20.5556 23.0265 21.6988 20.1485 21.6988H7.74675ZM7.74675 18.5984H20.1485C21.5483 18.5978 22.9218 18.2181 24.1231 17.4996C25.3245 16.7812 26.3089 15.7509 26.9718 14.518C27.6347 13.2851 27.9513 11.8957 27.8881 10.4974C27.8249 9.09904 27.3841 7.74391 26.6127 6.57588C25.8413 5.40785 24.7679 4.47052 23.5066 3.86342C22.2454 3.25632 20.8432 3.0021 19.4491 3.12777C18.0549 3.25343 16.7208 3.75428 15.5884 4.57714C14.456 5.40001 13.5676 6.51416 13.0175 7.80131L11.9013 10.4149L9.20085 9.52823C8.56181 9.31895 7.88499 9.25074 7.21704 9.32829C6.54909 9.40585 5.9059 9.62733 5.33182 9.97746C4.75774 10.3276 4.26641 10.7981 3.89171 11.3564C3.51701 11.9148 3.26785 12.5477 3.16141 13.2117C3.05497 13.8756 3.09377 14.5548 3.27515 15.2023C3.45653 15.8498 3.77617 16.4502 4.21204 16.9623C4.6479 17.4743 5.18962 17.8858 5.79985 18.1682C6.41008 18.4507 7.07431 18.5975 7.74675 18.5984ZM9.29696 23.249C9.70811 23.249 10.1024 23.4123 10.3931 23.7031C10.6839 23.9938 10.8472 24.3881 10.8472 24.7992V27.8996C10.8472 28.3107 10.6839 28.705 10.3931 28.9958C10.1024 29.2865 9.70811 29.4498 9.29696 29.4498C8.88582 29.4498 8.49152 29.2865 8.20079 28.9958C7.91007 28.705 7.74675 28.3107 7.74675 27.8996V24.7992C7.74675 24.3881 7.91007 23.9938 8.20079 23.7031C8.49152 23.4123 8.88582 23.249 9.29696 23.249ZM15.4978 23.249C15.909 23.249 16.3033 23.4123 16.594 23.7031C16.8847 23.9938 17.048 24.3881 17.048 24.7992V29.4498C17.048 29.8609 16.8847 30.2552 16.594 30.546C16.3033 30.8367 15.909 31 15.4978 31C15.0867 31 14.6924 30.8367 14.4017 30.546C14.1109 30.2552 13.9476 29.8609 13.9476 29.4498V24.7992C13.9476 24.3881 14.1109 23.9938 14.4017 23.7031C14.6924 23.4123 15.0867 23.249 15.4978 23.249ZM21.6987 23.249C22.1098 23.249 22.5041 23.4123 22.7949 23.7031C23.0856 23.9938 23.2489 24.3881 23.2489 24.7992V26.3494C23.2489 26.7605 23.0856 27.1548 22.7949 27.4456C22.5041 27.7363 22.1098 27.8996 21.6987 27.8996C21.2876 27.8996 20.8933 27.7363 20.6025 27.4456C20.3118 27.1548 20.1485 26.7605 20.1485 26.3494V24.7992C20.1485 24.3881 20.3118 23.9938 20.6025 23.7031C20.8933 23.4123 21.2876 23.249 21.6987 23.249Z" fill="white"/>
</svg>
