<svg width="31" height="31" viewBox="0 0 31 31" fill="none" xmlns="http://www.w3.org/2000/svg">
<path opacity="0.7" d="M23.537 28.6604C23.537 29.1231 23.4024 29.5755 23.15 29.9602C22.8977 30.345 22.5391 30.6448 22.1195 30.8219C21.6999 30.999 21.2382 31.0453 20.7928 30.955C20.3473 30.8648 19.9382 30.6419 19.617 30.3147C19.2959 29.9875 19.0772 29.5707 18.9886 29.1168C18.9 28.663 18.9454 28.1926 19.1192 27.765C19.293 27.3375 19.5874 26.9721 19.965 26.7151C20.3426 26.458 20.7866 26.3208 21.2407 26.3208C21.8498 26.3208 22.4338 26.5673 22.8645 27.006C23.2951 27.4448 23.537 28.0399 23.537 28.6604ZM14.3519 26.3208C13.8977 26.3208 13.4537 26.458 13.0761 26.7151C12.6985 26.9721 12.4042 27.3375 12.2304 27.765C12.0565 28.1926 12.0111 28.663 12.0997 29.1168C12.1883 29.5707 12.407 29.9875 12.7281 30.3147C13.0493 30.6419 13.4584 30.8648 13.9039 30.955C14.3493 31.0453 14.811 30.999 15.2306 30.8219C15.6502 30.6448 16.0088 30.345 16.2612 29.9602C16.5135 29.5755 16.6481 29.1231 16.6481 28.6604C16.6481 28.0399 16.4062 27.4448 15.9756 27.006C15.5449 26.5673 14.9609 26.3208 14.3519 26.3208ZM7.46296 26.3208C7.0088 26.3208 6.56483 26.458 6.18721 26.7151C5.80959 26.9721 5.51526 27.3375 5.34146 27.765C5.16766 28.1926 5.12219 28.663 5.21079 29.1168C5.29939 29.5707 5.51809 29.9875 5.83924 30.3147C6.16038 30.6419 6.56954 30.8648 7.01498 30.955C7.46042 31.0453 7.92212 30.999 8.34172 30.8219C8.76131 30.6448 9.11994 30.345 9.37226 29.9602C9.62458 29.5755 9.75926 29.1231 9.75926 28.6604C9.75926 28.0399 9.51733 27.4448 9.08669 27.006C8.65605 26.5673 8.07198 26.3208 7.46296 26.3208ZM31 11.6982C30.9966 14.7996 29.7858 17.773 27.6334 19.9661C25.4809 22.1592 22.5625 23.3928 19.5185 23.3962H8.03704C5.90548 23.3962 3.86123 22.5335 2.35399 20.9978C0.846757 19.4622 0 17.3793 0 15.2076C0 13.0358 0.846757 10.953 2.35399 9.41732C3.86123 7.88165 5.90548 7.01891 8.03704 7.01891C8.34346 7.01895 8.64963 7.03652 8.95412 7.07156C10.0013 4.59838 11.8532 2.56862 14.1978 1.32435C16.5424 0.0800859 19.2364 -0.302603 21.8256 0.240783C24.4149 0.784169 26.7411 2.2204 28.4123 4.30743C30.0835 6.39446 30.9974 9.00467 31 11.6982ZM27.5556 11.6982C27.5429 9.57463 26.7219 7.53898 25.2656 6.01988C23.8092 4.50078 21.8311 3.61678 19.7477 3.55405C17.6644 3.49132 15.6385 4.25475 14.0966 5.68357C12.5547 7.11239 11.6172 9.09509 11.4815 11.2141C11.4552 11.6795 11.2486 12.1152 10.907 12.4254C10.5655 12.7355 10.117 12.8947 9.66023 12.868C9.20347 12.8412 8.77585 12.6307 8.47144 12.2827C8.16703 11.9347 8.01077 11.4777 8.03704 11.0123C8.04565 10.85 8.05857 10.6892 8.07435 10.5283H8.03704C6.81901 10.5283 5.65086 11.0213 4.78958 11.8989C3.92831 12.7764 3.44444 13.9666 3.44444 15.2076C3.44444 16.4486 3.92831 17.6388 4.78958 18.5163C5.65086 19.3938 6.81901 19.8868 8.03704 19.8868H19.5185C21.6494 19.8845 23.6923 19.021 25.199 17.4858C26.7058 15.9507 27.5533 13.8692 27.5556 11.6982Z" fill="white"/>
</svg>
