<svg xmlns="http://www.w3.org/2000/svg" fill="none" viewBox="0 0 59 56"><g fill="#fff" clip-path="url(#a)" opacity=".8"><path d="m27.05 4.55 5.15 18.4 18.4 5.15c1.29.36 1.29 2.19 0 2.55L32.2 35.8l-5.15 18.4c-.36 1.29-2.19 1.29-2.55 0l-5.15-18.4L.97 30.64c-1.29-.36-1.29-2.19 0-2.55l18.4-5.15 5.15-18.4c.36-1.29 2.19-1.29 2.55 0zM49.92.29l1.78 6.35 6.35 1.78a.4.4 0 0 1 0 .77l-6.35 1.78-1.78 6.35a.4.4 0 0 1-.77 0l-1.78-6.35-6.35-1.78a.4.4 0 0 1 0-.77l6.35-1.78L49.15.29a.4.4 0 0 1 .77 0"/></g><defs><clipPath id="a"><path fill="#fff" d="M0 0h58.34v55.15H0z"/></clipPath></defs></svg>