<svg width="59" height="56" viewBox="0 0 59 56" fill="none" xmlns="http://www.w3.org/2000/svg">
<g opacity="0.8" clip-path="url(#clip0_556_18)">
<path d="M27.0499 4.55001L32.1999 22.95L50.5999 28.1C51.8899 28.46 51.8899 30.29 50.5999 30.65L32.1999 35.8L27.0499 54.2C26.6899 55.49 24.8599 55.49 24.4999 54.2L19.3499 35.8L0.969941 30.64C-0.320059 30.28 -0.320059 28.45 0.969941 28.09L19.3699 22.94L24.5199 4.54001C24.8799 3.25001 26.7099 3.25001 27.0699 4.54001L27.0499 4.55001Z" fill="white"/>
<path d="M49.92 0.289998L51.7 6.64L58.05 8.42C58.44 8.53 58.44 9.08 58.05 9.19L51.7 10.97L49.92 17.32C49.81 17.71 49.26 17.71 49.15 17.32L47.37 10.97L41.02 9.19C40.63 9.08 40.63 8.53 41.02 8.42L47.37 6.64L49.15 0.289998C49.26 -0.100002 49.81 -0.100002 49.92 0.289998Z" fill="white"/>
</g>
<defs>
<clipPath id="clip0_556_18">
<rect width="58.34" height="55.15" fill="white"/>
</clipPath>
</defs>
</svg>
