<svg width="31" height="31" viewBox="0 0 31 31" fill="none" xmlns="http://www.w3.org/2000/svg">
<path opacity="0.7" d="M13.95 3.61667V1.55C13.95 1.13891 14.1133 0.744666 14.404 0.453985C14.6947 0.163303 15.0889 0 15.5 0C15.9111 0 16.3053 0.163303 16.596 0.453985C16.8867 0.744666 17.05 1.13891 17.05 1.55V3.61667C17.05 4.02775 16.8867 4.422 16.596 4.71268C16.3053 5.00336 15.9111 5.16667 15.5 5.16667C15.0889 5.16667 14.6947 5.00336 14.404 4.71268C14.1133 4.422 13.95 4.02775 13.95 3.61667ZM24.2833 15.5C24.2833 17.2372 23.7682 18.9353 22.8031 20.3798C21.8379 21.8242 20.4662 22.95 18.8612 23.6147C17.2563 24.2795 15.4903 24.4535 13.7865 24.1146C12.0827 23.7757 10.5176 22.9391 9.28925 21.7108C8.06087 20.4824 7.22434 18.9173 6.88544 17.2135C6.54653 15.5097 6.72047 13.7437 7.38526 12.1388C8.05005 10.5338 9.17583 9.16205 10.6202 8.19693C12.0647 7.2318 13.7628 6.71667 15.5 6.71667C17.8287 6.71906 20.0614 7.64521 21.7081 9.29189C23.3548 10.9386 24.2809 13.1712 24.2833 15.5ZM21.1833 15.5C21.1833 14.3759 20.85 13.2771 20.2255 12.3425C19.601 11.4079 18.7134 10.6794 17.6749 10.2493C16.6364 9.81913 15.4937 9.70658 14.3912 9.92587C13.2888 10.1452 12.2761 10.6864 11.4813 11.4813C10.6864 12.2761 10.1452 13.2888 9.92587 14.3912C9.70658 15.4937 9.81913 16.6364 10.2493 17.6749C10.6794 18.7134 11.4079 19.601 12.3425 20.2255C13.2771 20.85 14.3759 21.1833 15.5 21.1833C17.0068 21.1816 18.4514 20.5823 19.5168 19.5168C20.5823 18.4514 21.1816 17.0068 21.1833 15.5ZM5.62004 7.81329C5.76422 7.95747 5.93539 8.07184 6.12377 8.14987C6.31215 8.2279 6.51406 8.26806 6.71796 8.26806C6.92186 8.26806 7.12377 8.2279 7.31215 8.14987C7.50053 8.07184 7.6717 7.95747 7.81588 7.81329C7.96006 7.66911 8.07443 7.49794 8.15246 7.30956C8.23048 7.12118 8.27065 6.91928 8.27065 6.71538C8.27065 6.51147 8.23048 6.30957 8.15246 6.12119C8.07443 5.93281 7.96006 5.76164 7.81588 5.61746L6.26587 4.06746C5.97469 3.77627 5.57976 3.61269 5.16796 3.61269C4.75616 3.61269 4.36123 3.77627 4.07004 4.06746C3.77886 4.35864 3.61527 4.75358 3.61527 5.16538C3.61527 5.57717 3.77886 5.97211 4.07004 6.26329L5.62004 7.81329ZM5.62004 23.1841L4.07004 24.7341C3.92586 24.8783 3.81149 25.0495 3.73346 25.2379C3.65543 25.4262 3.61527 25.6281 3.61527 25.832C3.61527 26.0359 3.65543 26.2378 3.73346 26.4262C3.81149 26.6146 3.92586 26.7858 4.07004 26.93C4.36123 27.2211 4.75616 27.3847 5.16796 27.3847C5.37186 27.3847 5.57377 27.3446 5.76215 27.2665C5.95053 27.1885 6.12169 27.0741 6.26587 26.93L7.81588 25.38C8.10706 25.0888 8.27065 24.6938 8.27065 24.282C8.27065 23.8702 8.10706 23.4753 7.81588 23.1841C7.52469 22.8929 7.12976 22.7294 6.71796 22.7294C6.30616 22.7294 5.91123 22.8929 5.62004 23.1841ZM24.2833 8.26667C24.4869 8.26683 24.6886 8.22687 24.8768 8.14908C25.0649 8.07129 25.2359 7.95718 25.38 7.81329L26.93 6.26329C27.0741 6.11911 27.1885 5.94794 27.2665 5.75956C27.3446 5.57118 27.3847 5.36928 27.3847 5.16538C27.3847 4.96147 27.3446 4.75957 27.2665 4.57119C27.1885 4.38281 27.0741 4.21164 26.93 4.06746C26.7858 3.92328 26.6146 3.80891 26.4262 3.73088C26.2378 3.65285 26.0359 3.61269 25.832 3.61269C25.6281 3.61269 25.4262 3.65285 25.2379 3.73088C25.0495 3.80891 24.8783 3.92328 24.7341 4.06746L23.1841 5.61746C22.9661 5.83425 22.8174 6.11101 22.7571 6.41252C22.6967 6.71404 22.7274 7.02669 22.8453 7.3107C22.9631 7.59472 23.1628 7.83727 23.4188 8.00749C23.6749 8.17772 23.9758 8.26794 24.2833 8.26667ZM25.38 23.1867C25.0888 22.8955 24.6938 22.7319 24.282 22.7319C23.8702 22.7319 23.4753 22.8955 23.1841 23.1867C22.8929 23.4779 22.7294 23.8728 22.7294 24.2846C22.7294 24.6964 22.8929 25.0914 23.1841 25.3825L24.7341 26.9325C25.0253 27.2237 25.4202 27.3873 25.832 27.3873C26.2438 27.3873 26.6388 27.2237 26.93 26.9325C27.2211 26.6414 27.3847 26.2464 27.3847 25.8346C27.3847 25.4228 27.2211 25.0279 26.93 24.7367L25.38 23.1867ZM5.16667 15.5C5.16667 15.0889 5.00336 14.6947 4.71268 14.404C4.422 14.1133 4.02775 13.95 3.61667 13.95H1.55C1.13891 13.95 0.744666 14.1133 0.453985 14.404C0.163303 14.6947 0 15.0889 0 15.5C0 15.9111 0.163303 16.3053 0.453985 16.596C0.744666 16.8867 1.13891 17.05 1.55 17.05H3.61667C4.02775 17.05 4.422 16.8867 4.71268 16.596C5.00336 16.3053 5.16667 15.9111 5.16667 15.5ZM15.5 25.8333C15.0889 25.8333 14.6947 25.9966 14.404 26.2873C14.1133 26.578 13.95 26.9722 13.95 27.3833V29.45C13.95 29.8611 14.1133 30.2553 14.404 30.546C14.6947 30.8367 15.0889 31 15.5 31C15.9111 31 16.3053 30.8367 16.596 30.546C16.8867 30.2553 17.05 29.8611 17.05 29.45V27.3833C17.05 26.9722 16.8867 26.578 16.596 26.2873C16.3053 25.9966 15.9111 25.8333 15.5 25.8333ZM29.45 13.95H27.3833C26.9722 13.95 26.578 14.1133 26.2873 14.404C25.9966 14.6947 25.8333 15.0889 25.8333 15.5C25.8333 15.9111 25.9966 16.3053 26.2873 16.596C26.578 16.8867 26.9722 17.05 27.3833 17.05H29.45C29.8611 17.05 30.2553 16.8867 30.546 16.596C30.8367 16.3053 31 15.9111 31 15.5C31 15.0889 30.8367 14.6947 30.546 14.404C30.2553 14.1133 29.8611 13.95 29.45 13.95Z" fill="white"/>
</svg>
