<svg xmlns="http://www.w3.org/2000/svg" fill="none" viewBox="0 0 131 14"><g fill="#f8f7f5" clip-path="url(#a)"><path d="m4.5 5.91-4.13 5.4c-.48.6-.5 1.46-.02 2.05.74.9 2.1.82 2.75-.03l2.3-3a1.3 1.3 0 0 0 0-1.63l-.78-1.03a1.6 1.6 0 0 1-.12-1.75zm15.2 0-4.12 5.4c-.48.6-.5 1.46-.02 2.05.74.9 2.1.82 2.75-.03l2.3-3a1.3 1.3 0 0 0 0-1.63l-.78-1.03a1.6 1.6 0 0 1-.12-1.75zm.57-3.13-7.7 10.52c-.35.47-.9.72-1.44.7-.54 0-1.08-.24-1.42-.7L6.85 9.38 5.43 7.45a1.75 1.75 0 0 1 .37-2.42 1.7 1.7 0 0 1 2.39.36l2.94 4.01L17.49.7A1.7 1.7 0 0 1 19.9.34c.77.57.94 1.67.37 2.44m7.04 10.88c-.76.56-1.84.4-2.4-.36l-2.86-3.92-1.42-1.93A1.75 1.75 0 0 1 21 5.03a1.7 1.7 0 0 1 2.4.36l4.28 5.86c.56.76.4 1.85-.36 2.41"/></g><path fill="#f8f7f5" d="M37.64 6.7c-.08-.69-.71-1.09-1.56-1.09-.94 0-1.56.5-1.56 1.17 0 .74.83 1.01 1.37 1.15l.7.2c.77.19 2 .63 2 1.95 0 1.15-.92 2.05-2.56 2.05-1.53 0-2.47-.8-2.55-1.97h.9c.08.8.8 1.17 1.65 1.17.97 0 1.7-.5 1.7-1.27 0-.69-.65-.95-1.39-1.17l-.87-.23c-1.11-.32-1.8-.89-1.8-1.85 0-1.19 1.07-1.98 2.44-1.98s2.35.8 2.39 1.88zm4.72 5.3V4.93h4.28v.78h-3.4v2.36h3.18v.78h-3.19v2.37h3.46V12zM56.5 8.46c0 2.24-1.32 3.64-3.13 3.64-1.82 0-3.12-1.4-3.12-3.64 0-2.23 1.3-3.63 3.12-3.63 1.8 0 3.13 1.4 3.13 3.63m-.85 0c0-1.82-1-2.8-2.28-2.8s-2.27.98-2.27 2.8c0 1.83 1 2.82 2.27 2.82 1.28 0 2.28-.99 2.28-2.82m8.5-1.75c-.09-.7-.72-1.1-1.57-1.1-.94 0-1.55.5-1.55 1.17 0 .74.83 1.01 1.36 1.15l.7.2c.77.19 2 .63 2 1.95 0 1.15-.92 2.05-2.56 2.05-1.52 0-2.47-.8-2.55-1.97h.9c.08.8.81 1.17 1.65 1.17.98 0 1.71-.5 1.71-1.27 0-.69-.65-.95-1.4-1.17l-.87-.23c-1.1-.32-1.8-.89-1.8-1.85 0-1.19 1.07-1.98 2.44-1.98s2.35.8 2.4 1.88zM69.16 12h-.92l2.6-7.07h.92l2.6 7.07h-.93l-.7-2h-2.85zm.98-2.76h2.3l-1.12-3.17h-.06zm13.28-4.31V12h-.84l-3.83-5.5h-.07V12h-.88V4.93h.85l3.83 5.52h.07V4.93zm8.89 2.23c-.2-.98-1.05-1.5-1.98-1.5-1.28 0-2.27.98-2.27 2.8 0 1.83 1 2.82 2.27 2.82.93 0 1.76-.53 1.98-1.5h.88a2.8 2.8 0 0 1-2.86 2.32c-1.81 0-3.12-1.4-3.12-3.64 0-2.23 1.3-3.63 3.12-3.63 1.43 0 2.6.86 2.86 2.33zm4.6 4.84V4.93h.88v3.14h3.75V4.93h.88V12h-.89V8.85H97.8V12zm9.57 0V4.93h4.28v.78h-3.4v2.36h3.18v.78h-3.19v2.37h3.46V12zm13-4.84c-.21-.98-1.05-1.5-1.98-1.5-1.28 0-2.27.98-2.27 2.8 0 1.83 1 2.82 2.27 2.82.93 0 1.76-.53 1.97-1.5h.88c-.25 1.45-1.41 2.32-2.85 2.32-1.82 0-3.12-1.4-3.12-3.64 0-2.23 1.3-3.63 3.12-3.63 1.43 0 2.59.86 2.85 2.33zm4.6 4.84V4.93h.88v3.5h.1l3.14-3.5h1.15l-2.96 3.2 2.96 3.87h-1.08l-2.43-3.27-.88 1V12z"/><defs><clipPath id="a"><path fill="#fff" d="M0 0h28v14H0z"/></clipPath></defs></svg>