<svg width="120" height="120" viewBox="0 0 120 120" fill="none" xmlns="http://www.w3.org/2000/svg">
<rect width="120" height="120" rx="20" fill="#141414"/>
<path d="M36.2509 57.7726L25.9191 71.254C24.7418 72.7702 24.6606 74.9214 25.8785 76.3966C27.7256 78.6299 31.1358 78.4455 32.7596 76.3147L38.5243 68.8159C39.4581 67.6071 39.4581 65.9475 38.5243 64.7387L36.5554 62.1776C35.5405 60.8663 35.4796 59.1453 36.2509 57.7931V57.7726Z" fill="#F8F7F5"/>
<path d="M74.2697 57.7726L63.9379 71.254C62.7606 72.7702 62.6794 74.9214 63.8973 76.3966C65.7444 78.6299 69.1545 78.4455 70.7784 76.3147L76.5431 68.8159C77.4769 67.6071 77.4769 65.9475 76.5431 64.7387L74.5742 62.1776C73.5593 60.8663 73.4984 59.1453 74.2697 57.7931V57.7726Z" fill="#F8F7F5"/>
<path d="M75.6713 49.9456L56.4284 76.2323C55.5556 77.4207 54.1753 78.0353 52.8153 77.9943C51.4756 78.0148 50.1359 77.4002 49.2834 76.2323L42.1181 66.4388L38.5862 61.624C37.5713 60.2308 37.5307 58.4278 38.2817 57.0141C38.5659 56.4609 38.9719 55.9692 39.4996 55.5799C41.3874 54.1662 44.0667 54.576 45.4673 56.4814L52.8153 66.5003L68.7292 44.762C69.5615 43.6147 70.8808 43 72.2002 43C73.0934 43 73.9865 43.2664 74.7578 43.84C76.6659 45.2742 77.0921 48.0197 75.6713 49.9456Z" fill="#F8F7F5"/>
<path d="M93.2694 77.1543C91.3816 78.5476 88.6819 78.1583 87.2813 76.2324L80.116 66.4389L76.5841 61.6241C75.5692 60.2309 75.5286 58.4279 76.2796 57.0142C76.5638 56.461 76.9698 55.9693 77.4772 55.58C79.3853 54.1663 82.0647 54.576 83.4653 56.4815L94.1625 71.1102C95.5631 73.0157 95.1571 75.7406 93.2694 77.1543Z" fill="#F8F7F5"/>
</svg>
